<?xml version="1.0" encoding="UTF-8"?>
<svg width="24px" height="35px" viewBox="0 0 24 35" version="1.1" xmlns="http://www.w3.org/2000/svg" xmlns:xlink="http://www.w3.org/1999/xlink">
    <title>Group 3</title>
    <g id="Page-1" stroke="none" stroke-width="1" fill="none" fill-rule="evenodd">
        <g id="index" transform="translate(-886.000000, -1542.000000)" fill="#7B8794">
            <g id="Group-3" transform="translate(886.000000, 1542.000000)">
                <path d="M10,1.76204994 C10.2967798,1.76204994 10.5782275,1.89387295 10.7682213,2.12186554 L24,18 L10.7498379,33.0168504 C10.3844343,33.4309744 9.75250238,33.4704702 9.33837836,33.1050666 C9.12323856,32.9152374 9,32.6421439 9,32.3552288 L9,27.0660499 L17,18 L9,8.39904994 L9,2.76204994 C9,2.20976519 9.44771525,1.76204994 10,1.76204994 Z" id="Combined-Shape-Copy-3" opacity="0.25"></path>
                <path d="M1.76822128,2.12186554 L15,18 L15,18 L1.74983786,33.0168504 C1.38443432,33.4309744 0.752502375,33.4704702 0.338378363,33.1050666 C0.123238562,32.9152374 -1.38426508e-14,32.6421439 0,32.3552288 L0,2.76204994 C-6.76353751e-17,2.20976519 0.44771525,1.76204994 1,1.76204994 C1.29677984,1.76204994 1.57822745,1.89387295 1.76822128,2.12186554 Z" id="Rectangle-Copy-20" opacity="0.2"></path>
            </g>
        </g>
    </g>
</svg>