<?xml version="1.0" encoding="UTF-8"?>
<svg width="64px" height="64px" viewBox="0 0 64 64" version="1.1" xmlns="http://www.w3.org/2000/svg" xmlns:xlink="http://www.w3.org/1999/xlink">
    <title>Noun/ noun_Bike rental</title>
    <g id="Page-1" stroke="none" stroke-width="1" fill="none" fill-rule="evenodd">
        <g id="index" transform="translate(-1138.000000, -582.000000)">
            <g id="Noun/-noun_Bike-rental" transform="translate(1138.000000, 582.000000)">
                <rect id="Rectangle" x="0" y="0" width="64" height="64"></rect>
                <g id="Group-4" transform="translate(5.333333, 12.000000)" fill-rule="nonzero">
                    <path d="M47.6317652,1.40745243 C43.3156564,-1.33774481 37.6682298,0.0556323197 35.0139593,4.51854977 C34.3532672,5.62914084 33.9417072,6.82500945 33.7599341,8.03773524 C33.6111869,8.14971383 33.426695,8.23317042 33.2456104,8.28105564 L33.2071461,8.29161978 C32.8671014,8.38211673 32.5209222,8.24619462 32.3180613,7.97611095 L32.2778952,7.81307402 C32.2472604,7.68982726 32.1945001,7.58137335 32.1247213,7.48805485 L32.1019152,7.40107899 L32.0593667,7.41234716 C31.8524103,7.1936725 31.5419756,7.09120424 31.2356279,7.172903 L31.1954618,7.18311467 C30.8870662,7.26375242 30.6630914,7.50778227 30.5820778,7.80251259 C30.5820778,7.80251259 30.5415718,8.10534697 30.5415718,8.16802506 C30.5395295,8.49409892 30.6259883,9.16386106 30.6259883,9.16386106 L12.7109695,13.8909045 C12.7109695,13.8909045 12.300124,14.0025315 12.186433,14.0961925 C12.0618496,14.1990124 11.8610191,14.6250935 11.8610191,14.6250935 L10.7112128,16.9522866 C10.7112128,16.9522866 10.6376888,17.0582796 10.6795568,17.2283569 C10.7125748,17.3635749 10.7728222,17.4223768 10.8582625,17.4720288 L13.4897896,18.933015 C13.4935339,18.9351278 13.4965974,18.9386491 13.5000015,18.9407619 C13.6068869,18.8724488 13.746101,18.8639977 13.863539,18.933015 C13.863539,18.933015 14.4445854,19.4379734 14.665153,19.3781078 C14.8969617,19.3150764 15.2506262,18.6315959 15.2506262,18.6315959 C15.3483184,18.4544782 15.5668469,18.3928549 15.7377188,18.4939169 C15.7377188,18.4939169 17.2517684,19.2193077 17.603725,19.1386637 C17.9607967,19.0569694 18.2392337,18.3146808 18.2392337,18.3146808 C18.3362462,18.136851 18.5186902,17.9516383 18.6902506,18.0527003 C18.6902506,18.0527003 19.4067729,18.6759745 19.7631126,18.5685753 C20.0745668,18.4731474 21.169632,17.0132069 21.169632,17.0132069 C21.267664,16.8360892 21.4855129,16.7737627 21.6577529,16.8758794 C21.6577529,16.8758794 22.2881552,17.3452664 22.7041245,17.2347031 C23.2552124,17.0892716 23.0057058,16.2255256 24.4165908,15.8909961 C25.3587436,15.667742 26.2979336,16.5589914 26.8775858,16.3811616 C27.0923674,16.3156655 27.3415342,15.8807826 27.3415342,15.8807826 C27.4395662,15.703665 27.6563955,15.6413384 27.8279471,15.7423914 L29.024373,16.4477069 L31.5344276,15.7853457 C31.9936094,15.6642083 32.4595881,15.950492 32.5777494,16.424819 L32.6911005,16.7762417 C32.8575544,17.1649937 33.274186,17.3850746 33.6867569,17.2766207 L33.7259017,17.2660566 C34.184064,17.1449192 34.4618213,16.6621546 34.3447319,16.1871065 L34.2160617,15.6652459 C34.2681415,15.3279039 34.5098178,15.0381045 34.8495226,14.9479591 L34.8896887,14.937395 C35.0258442,14.9014774 35.1824253,14.9145062 35.3345796,14.9620443 C36.0299968,15.9811378 36.9313246,16.8751997 38.0239674,17.5695896 C41.1300564,19.5461172 44.924025,19.3675392 47.7975386,17.4519769 C47.7737111,17.5731143 47.7526077,17.693891 47.7253766,17.8153709 C47.3199773,19.6038553 46.5245065,21.1412847 45.5983003,22.1384729 L42.6073226,22.1384729 C42.4983982,22.1384729 42.4102391,22.229673 42.4102391,22.3423547 L40.9268627,25.1287484 C40.9268627,25.2414301 41.0157014,25.3333333 41.1239462,25.3333333 L47.7908184,25.3333333 C47.8997428,25.3333333 47.987562,25.2410786 47.987562,25.1287484 L47.987562,22.3423547 C47.987562,22.229673 47.899403,22.1384729 47.7908184,22.1384729 L46.8983352,22.1384729 C47.6781644,21.0659232 48.3109543,19.6622695 48.6775504,18.0463234 C48.7902218,17.5477113 48.8719151,17.055806 48.9239897,16.5747902 C49.5775363,15.9737008 50.1589313,15.2676822 50.6412487,14.4574556 C53.2922079,9.9967016 51.9459891,4.15203578 47.631536,1.40710898 L47.6317652,1.40745243 Z M44.4549188,24.6261978 C43.8745521,24.6261978 43.4034931,24.1392054 43.4034931,23.5391347 C43.4034931,22.9380453 43.8749355,22.4503588 44.4549188,22.4503588 C44.6788936,22.4503588 44.8851703,22.5239544 45.0560423,22.6472002 C44.6485952,22.9764382 44.2275369,23.2039201 43.8105568,23.3004027 C43.7601797,23.4725984 43.7257996,23.6821143 43.7812831,23.854301 C43.8340435,24.0183926 43.9623678,24.1673488 44.0849121,24.2835462 C44.5686063,24.1627694 45.0461484,23.9247225 45.5009297,23.5870289 C45.4777837,24.1638151 45.0206427,24.6261347 44.4549066,24.6261347 L44.4549188,24.6261978 Z M46.0152395,9.70443316 C45.5291664,9.58646891 45.0369239,9.60795056 44.5502495,9.74175875 C44.7377999,10.1048012 45.0002468,10.4192554 45.3304186,10.6452859 C45.4849518,10.6421167 45.6398336,10.6519764 45.7909685,10.688598 C46.1095681,10.7657147 46.3975381,10.9343884 46.6552185,11.1696048 C46.1698251,11.2034093 45.6701059,11.0924881 45.2235158,10.8086717 C44.0825106,10.0822261 43.7264584,8.53745885 44.4287073,7.35673467 C45.1305902,6.17601049 46.6241881,5.80803705 47.7658904,6.53450965 C48.9068956,7.2599005 49.2625992,8.80608307 48.5613786,9.98608608 C48.3421703,10.3547627 48.0405804,10.6333029 47.7015552,10.8350753 C47.2437328,10.2646263 46.6787113,9.86529128 46.0152308,9.70438177 L46.0152395,9.70443316 Z M49.9170869,14.0014831 C49.6437563,14.4599535 49.3319623,14.8849799 48.9888764,15.2762289 C48.9878553,14.8881801 48.9653897,14.5124542 48.9248829,14.1501328 C49.0518452,13.972303 49.1747294,13.7913092 49.2870523,13.6015171 C51.4781761,9.91538236 50.3630514,5.07331345 46.7994797,2.80570643 C45.0369082,1.68312602 42.9581944,1.35707018 40.950935,1.8863137 C39.0318608,2.39197519 37.4026999,3.63360159 36.3645194,5.37908657 C35.3035083,7.16504683 34.9777807,9.2708429 35.4475499,11.3100215 C35.9179641,13.3488396 37.1256833,15.076025 38.8531376,16.1743563 C40.6170162,17.2976579 42.694423,17.6237138 44.7020309,17.0941097 C45.9550104,16.7634564 47.0810276,16.1148604 48.0027897,15.2211591 C48.0072147,15.5588527 47.9925778,15.9057051 47.9626236,16.2589127 C47.0626464,16.9902892 46.0234202,17.5329374 44.8848549,17.8333018 C42.6804859,18.4150189 40.401264,18.0558527 38.4658075,16.8247553 C36.5719167,15.6194214 35.2446943,13.7235739 34.729351,11.486436 C34.2129795,9.24866713 34.5707309,6.93761004 35.7362485,4.97875094 C36.8738552,3.06280105 38.661523,1.70151567 40.7689057,1.14612999 C42.9711834,0.564061274 45.2501439,0.922875943 47.187953,2.15530751 C51.0972944,4.64241853 52.3213436,9.95603793 49.9171635,14.0013118 L49.9170869,14.0014831 Z" id="Shape" fill="#FFFFFF"></path>
                    <path d="M17.4634162,21.244996 C17.6775733,20.8853987 17.7193355,20.3677247 17.8384898,20.0859581 C18.0235685,19.6477356 18.9157744,19.337377 19.4010085,19.3609582 C20.2854678,19.4035802 20.6142508,19.9315998 21.5011735,19.9270551 C22.1845789,19.9233309 22.6370552,19.5835918 22.6546658,19.0729519 C22.6718633,18.5709988 22.2083427,18.1907123 21.5363947,18.182015 C20.7678192,18.1720836 19.9988244,18.1729112 19.2306681,18.188636 C18.9284792,18.1944293 18.8961302,18.1534623 18.7863892,17.8087627 C18.8252886,17.4077764 17.7737605,17.094939 17.2746057,17.0821102 C16.7598949,17.0688683 16.6243669,17.2915019 16.3786786,17.7375848 C16.0875486,18.266848 15.857825,18.8308369 15.6043691,19.3721661 C16.1731276,20.021846 16.829876,20.5217758 17.4633323,21.2451019 L17.4634162,21.244996 Z" id="Path" fill="#EF8130"></path>
                    <path d="M48.4297135,24.9378893 L46.8429804,24.9378893 L31.006048,24.9378893 C28.519289,24.9378893 27.5919039,24.971832 26.5542431,25.4915812 C25.0633198,26.2409886 24.7038755,28.4540613 27.0292252,30.5851614 C29.3525624,32.7158377 28.1958206,33.3502841 28.5741333,33.733452 C28.9520792,34.1145753 45.3481995,25.7026043 46.0956004,25.7026043 C46.8432948,25.7026043 48.3566716,25.9210958 48.3566716,25.9210958 C48.3566716,25.920682 48.8619586,24.9378893 48.4295573,24.9378893 L48.4297135,24.9378893 Z" id="Path" fill="#EF8130"></path>
                    <path d="M45.1130565,37.1098636 C45.1155133,37.0333084 45.087669,36.9621369 45.0348478,36.9087561 C44.9848924,36.8578574 44.9173287,36.8297188 44.8440352,36.8297188 C44.6237353,36.8297188 44.3837913,37.0597997 43.2392721,38.3662041 L43.1266693,38.4948943 C42.8609175,38.2859158 42.5394827,38.1456363 42.1885711,38.1005291 L42.1955321,37.988386 C42.2970812,36.3182103 42.3011746,35.8746593 42.1398439,35.7020907 C42.0346103,35.5887082 41.8499404,35.5887082 41.744298,35.7020907 C41.5833709,35.8746487 41.5870608,36.3178396 41.6890197,37.988386 L41.6959808,38.1005291 C41.3442411,38.1456342 41.0232151,38.2863289 40.7574738,38.4948943 L40.6452798,38.3674436 C39.5003832,37.0597785 39.2612778,36.829687 39.039783,36.829687 C38.9668972,36.829687 38.9001563,36.8574124 38.849788,36.9087243 C38.7969657,36.9621061 38.769532,37.033283 38.7715793,37.1098318 C38.7785403,37.3324654 39.0057998,37.5732987 40.2923776,38.7240736 L40.4197188,38.8374562 C40.2121133,39.1060233 40.0741219,39.430037 40.0286698,39.7859053 L39.9177023,39.7788705 C39.3432099,39.742041 38.7494298,39.7064542 38.338831,39.7064542 C37.9952886,39.7064542 37.5686097,39.7064542 37.5686097,40.0350231 C37.5686097,40.1293711 37.6136519,40.2948929 37.9154331,40.3400001 C38.0153437,40.3548968 38.153333,40.3635877 38.3380029,40.3635877 C38.7495241,40.3635877 39.342843,40.3263451 39.9177128,40.2907572 L40.0286803,40.2837225 C40.0737225,40.638362 40.2125326,40.9636151 40.4197293,41.2317585 L40.2923881,41.3455541 C39.0061877,42.4959054 38.7777744,42.7380734 38.7715897,42.959796 C38.7691329,43.0363511 38.7969773,43.1079358 38.8497985,43.1609035 C38.9001637,43.2118022 38.9673176,43.2399407 39.0397935,43.2399407 C39.2609109,43.2399407 39.5004461,43.0098599 40.6457096,41.7021842 L40.7570859,41.5739072 C41.0228378,41.7832989 41.3446814,41.9231652 41.6955929,41.9682724 L41.6886319,42.081655 C41.5870829,43.7505594 41.5825807,44.1941104 41.7439102,44.3679502 C41.7967325,44.4238141 41.8675721,44.4544368 41.9425009,44.4544368 C42.017025,44.4544368 42.0870438,44.4229868 42.139865,44.3679502 C42.3007921,44.1937396 42.2971022,43.7505488 42.1955532,42.0803838 L42.1890016,41.9682407 C42.5395148,41.9231355 42.8605303,41.7824408 43.1270998,41.5738754 L43.2409291,41.7042288 C44.3837292,43.0093514 44.6240925,43.2394428 44.8440149,43.2394428 L44.8444244,43.2394428 C44.9173101,43.2394428 44.9848687,43.2117175 45.0344193,43.1604056 C45.0872416,43.107438 45.1146753,43.0358469 45.1126281,42.9592981 C45.105667,42.7374908 44.8784075,42.4958312 43.5918297,41.3450562 L43.4644885,41.2312606 C43.6716853,40.9631172 43.8100855,40.6378535 43.8547199,40.2832246 L43.9660962,40.2902593 C44.5405886,40.3262603 45.1335302,40.3630898 45.5449675,40.3630898 C45.8876923,40.3630898 46.3151888,40.3630898 46.3151888,40.0345209 C46.3151888,39.7059521 45.8877027,39.7059521 45.5449675,39.7059521 C45.1334463,39.7059521 44.5392993,39.7419531 43.9648383,39.7783684 L43.8542796,39.7854031 C43.8096473,39.4295241 43.6704274,39.1055105 43.4640483,38.8369539 L43.5913895,38.7235714 C44.878743,37.5727965 45.1060032,37.3318996 45.1130264,37.1097533 L45.1130565,37.1098636 Z" id="Path" fill="#EF8130"></path>
                    <path d="M42.7607877,33.4561134 C41.8587178,34.1931475 40.9074851,34.9429575 39.9784228,35.6931911 C38.4743964,36.9068916 36.906951,38.3585228 35.3890878,39.6624801 C35.3821268,39.7857994 35.3784418,39.9099344 35.3784418,40.0349062 C35.3784418,43.6970889 38.3163667,46.6666667 41.9418376,46.6666667 C45.5660506,46.6666667 48.5040804,43.6967711 48.5040804,40.0349062 C48.503671,36.6523927 45.9989771,33.8641761 42.7608339,33.4561134 L42.7607877,33.4561134 Z M41.9418439,44.5115617 C39.499321,44.5115617 37.5125764,42.5020753 37.5125764,40.0353723 C37.5125764,37.5669744 39.4989017,35.5600305 41.9418439,35.5600305 C44.3831089,35.5600305 46.3702729,37.5669744 46.3702729,40.0353723 C46.3702729,42.5029228 44.3835282,44.5115617 41.9418439,44.5115617 L41.9418439,44.5115617 Z" id="Shape" fill="#EF8130"></path>
                    <path d="M47.0145786,27.4898808 C47.1836924,26.7412997 46.9810021,26.3026641 46.5064193,26.1064719 C46.4605585,26.1052305 46.4167449,26.1052305 46.3749795,26.1052305 C45.7292377,26.1052305 33.4186329,32.3764932 29.8252384,33.8426375 C29.3297734,34.2307949 28.9944179,34.5403166 28.8707561,34.7397822 C27.7434701,36.5373979 23.6978613,38.4694456 21.4224291,38.2228283 C19.146997,37.975374 16.3753242,34.869341 16.604576,32.5283832 C16.8342891,30.1862601 17.1569504,26.3869971 18.3890088,25.0516829 C19.6211196,23.7146737 15.04646,19.5968634 15.04646,19.5968634 C15.04646,19.5968634 13.3660135,20.0412937 11.4173203,21.1221196 L11.6310685,21.2549519 C11.793222,21.3546804 11.9070513,21.5139954 11.9508681,21.7010347 C11.9950916,21.8872478 11.964381,22.0809081 11.865288,22.2443662 L8.56162931,27.6813886 C8.43141593,27.8961512 8.20457504,28.0248519 7.95519682,28.0248519 C7.87534966,28.0248519 7.79673315,28.0111958 7.72261153,27.984712 L5.5065102,27.8899497 L5.28621038,27.8791909 C4.13439536,30.186991 3.9165694,31.6166936 3.9165694,31.6166936 C3.9165694,31.6166936 7.28731602,30.7207989 10.2527051,32.2771365 L9.19502275,33.9588591 C8.38918201,33.6013275 7.49895731,33.4018725 6.56297657,33.4018725 C2.93834427,33.4018725 0,36.3717681 0,40.0347983 C0,43.6969809 2.93750567,46.6665587 6.56297657,46.6665587 C10.1871896,46.6665587 13.1259531,43.6966631 13.1259531,40.0347983 C13.1259531,38.095653 12.3029107,36.3514286 10.9905669,35.139423 L11.9827128,33.563212 C14.8084752,36.514463 14.6872977,42.2631469 14.6872977,42.2631469 C14.6872977,42.2631469 26.598541,43.2012568 29.3439028,42.5892263 C32.0897887,41.9776195 35.888535,37.9247899 39.3456573,35.1340309 C42.802465,32.3436956 46.549952,29.5542078 47.0142211,27.489741 L47.0145786,27.4898808 Z M10.9925806,40.0357961 C10.9925806,42.5024991 9.00625528,44.5119854 6.56415166,44.5119854 C4.12204805,44.5119854 2.13572271,42.5024991 2.13572271,40.0357961 C2.13572271,37.5673981 4.12204805,35.5604542 6.56415166,35.5604542 C7.0772167,35.5604542 7.5714552,35.6494229 8.03002181,35.8137031 L6.83355142,37.7139702 C6.91913145,36.2701782 6.91380844,35.8666707 6.76189423,35.7028948 C6.65625179,35.5895122 6.4711731,35.5895122 6.36634829,35.7028948 C6.20501242,35.8754528 6.20911107,36.3186436 6.31066011,37.98919 L6.31762121,38.1013331 C5.96710801,38.1464382 5.64567321,38.287133 5.37952302,38.4956984 L5.26732902,38.3682476 C4.12201314,37.0605825 3.88248845,36.8304911 3.66141292,36.8304911 C3.58934586,36.8304911 3.52096864,36.8582165 3.47141795,36.9095284 C3.41859568,36.9629102 3.39116198,37.0340871 3.39320921,37.1106359 C3.4001702,37.3332695 3.62742976,37.5741027 4.91400756,38.7248777 L5.04093992,38.8382602 C4.8337432,39.1068274 4.69575182,39.430841 4.6507086,39.7867094 L4.53933224,39.7796745 C3.96524868,39.7428451 3.37074525,39.7072582 2.95962234,39.7072582 C2.61689762,39.7072582 2.18940108,39.7072582 2.18940108,40.0358271 C2.18940108,40.1301752 2.23526194,40.295697 2.53622445,40.3408042 C2.63613507,40.3557008 2.77412436,40.3643917 2.95879423,40.3643917 C3.36990665,40.3643917 3.9644625,40.3271491 4.53850412,40.2915612 L4.64988049,40.2845265 C4.69451279,40.639166 4.83291509,40.9644191 5.04011181,41.2325625 L4.91317945,41.3463582 C3.62697902,42.4967094 3.39940435,42.7388775 3.39238109,42.9606 C3.38992421,43.0371552 3.41776861,43.1087399 3.47058983,43.1617075 C3.52054515,43.2126063 3.58851775,43.2407448 3.6605848,43.2407448 C3.88129344,43.2407448 4.12123743,43.010664 5.2673395,41.7029883 L5.37871586,41.5747112 C5.64446772,41.7841029 5.96590252,41.9239693 6.31681406,41.9690765 L6.30985306,42.082459 C6.20871389,43.7513634 6.20421062,44.1949145 6.36554124,44.3687543 C6.41795365,44.4246182 6.48838544,44.4552409 6.5629054,44.4552409 C6.63742955,44.4552409 6.70785715,44.4237908 6.76067837,44.3687543 C6.92201423,44.1945437 6.91750677,43.7513528 6.815138,42.0811878 L6.80858645,41.9690447 C7.15950847,41.9239396 7.48053445,41.7832448 7.74668465,41.5746794 L7.86051391,41.7050328 C9.003314,43.0101555 9.24367729,43.2402469 9.46443834,43.2402469 C9.53732408,43.2402469 9.60488262,43.2125215 9.65525094,43.1612096 C9.70766335,43.108242 9.7350981,43.0366509 9.732641,42.9601021 C9.72608945,42.7382948 9.49842045,42.4966353 8.21184265,41.3458603 L8.08450147,41.2320646 C8.29169819,40.9639212 8.43091602,40.6386575 8.47595924,40.2840286 L8.5873356,40.2910633 C9.16182798,40.3270644 9.75476952,40.3638938 10.1662069,40.3638938 C10.5097493,40.3638938 10.9364282,40.3638938 10.9364282,40.035325 C10.9364282,39.7067561 10.5097597,39.7067561 10.1662069,39.7067561 C9.75468566,39.7067561 9.16136675,39.7427572 8.58607771,39.7791724 L8.47798236,39.786621 C8.45750903,39.6239892 8.41738104,39.4688152 8.35923682,39.3210884 L9.4775079,37.544236 C9.65768078,37.3484994 9.71991527,37.2380195 9.73220074,37.1395314 L9.81778076,37.0038071 C10.5466382,37.8003875 10.9925806,38.8659375 10.9925806,40.0357808 L10.9925806,40.0357961 Z" id="Shape" fill="#EF8130"></path>
                    <path d="M7.97730574,27.5604317 C7.97157654,27.5604317 7.96480574,27.5604317 7.95855641,27.5588528 C7.96324387,27.5604317 7.96741054,27.5620108 7.97209774,27.5620108 C7.97366027,27.5620108 7.97522281,27.5604317 7.97730614,27.5604317 L7.97730574,27.5604317 Z" id="Path" fill="#000000"></path>
                    <path d="M8.3122102,27.4316164 L11.6154496,21.994594 C11.6842409,21.8820378 11.6494359,21.7347242 11.5372409,21.6647857 L11.1011487,21.3929134 C9.69293221,22.234601 8.20578262,23.4039888 7.14642308,24.9744793 C6.55309369,25.8538269 6.07113018,26.6723041 5.68055293,27.4109908 L7.98586017,27.5111324 C8.09723653,27.5806525 8.24341473,27.5450646 8.31221125,27.431681 L8.3122102,27.4316164 Z" id="Path" fill="#EF8130"></path>
                    <path d="M40.9777177,21.064906 C40.2480427,20.1251435 39.8132189,18.6391999 39.7632175,16.9193406 C39.7607606,16.9189268 39.7591227,16.9189268 39.7566659,16.9180992 C39.3504698,16.821268 38.959012,16.704576 38.5745565,16.5775385 C38.5635006,18.9415902 39.2051407,20.9597632 40.3479827,22.1540776 L40.9777177,21.064906 Z" id="Path" fill="#FFFFFF"></path>
                </g>
            </g>
        </g>
    </g>
</svg>