<?xml version="1.0" encoding="UTF-8"?>
<svg width="64px" height="64px" viewBox="0 0 64 64" version="1.1" xmlns="http://www.w3.org/2000/svg" xmlns:xlink="http://www.w3.org/1999/xlink">
    <title>Noun/noun_bungee jumping</title>
    <g id="Page-1" stroke="none" stroke-width="1" fill="none" fill-rule="evenodd">
        <g id="index" transform="translate(-958.000000, -585.000000)">
            <g id="Noun/noun_bungee-jumping" transform="translate(958.000000, 585.000000)">
                <rect id="Rectangle" x="0" y="0" width="64" height="64"></rect>
                <g id="Group-4" transform="translate(2.666667, 8.000000)" fill-rule="nonzero">
                    <path d="M56.1500716,18.1400481 L58.2957128,18.1400481 L54.9877783,0.000531422783 L52.8421372,0.000531422783 L55.2626726,13.2749583 L46.3852741,2.93964226 L48.910024,0.000531422783 L46.121287,0.000531422783 L44.9912038,1.31614566 L43.8611207,0.000531422783 L41.0723837,0.000531422783 L43.5967927,2.93964226 L34.7193942,13.2749583 L37.1399297,0.000531422783 L34.9942885,0.000531422783 L31.6863541,18.1400481 L33.8319952,18.1400481 L34.0466872,16.9625181 L55.9359762,16.9625181 L56.1500716,18.1400481 Z M53.8184124,14.8400841 L36.1633136,14.8400841 L44.9904369,4.56305315 L53.8184124,14.8400841 Z" id="Shape" fill="#EF8130"></path>
                    <path d="M4.85927848,38.7643949 C5.64382646,39.9988386 5.28500675,41.6394779 4.05775626,42.4282978 C2.83087217,43.2174607 1.20016786,42.8565303 0.415619889,41.6220609 C-0.368928085,40.3876172 -0.0101083759,38.7473208 1.21680979,37.958158 C2.44403472,37.1689951 4.07473903,37.5302598 4.85928701,38.7643949" id="Path" fill="#FFFFFF"></path>
                    <path d="M5.81629579,34.3047292 C5.81230147,34.3164479 5.80897283,34.3278315 5.80531109,34.3398854 C5.3629409,35.7186704 5.27539397,36.7298308 5.27040906,36.7807445 C5.22680432,37.2993788 5.60859892,37.7550482 6.12389364,37.8003048 C6.12455932,37.8003048 6.12522508,37.8006396 6.12589076,37.8006396 C6.15285272,37.8029834 6.17981384,37.8039878 6.20644262,37.8039878 C6.68841941,37.8039878 7.09818744,37.4323433 7.13977096,36.9401687 L7.13977096,36.9384945 C7.14542955,36.8755492 7.23929871,35.960848 7.63706036,34.7762038 C7.86507095,34.0948512 8.1939386,33.3280767 8.65560081,32.5774849 C8.99744627,32.0213509 9.41185836,31.4739255 9.91384295,30.9767023 C10.2823172,30.6107492 10.2863136,30.0134557 9.92249709,29.6424883 C9.55868396,29.2718466 8.96488331,29.2678266 8.59642611,29.6341178 C7.33486069,30.8887041 6.55695926,32.3354598 6.0706537,33.5916747 C5.97578705,33.8370977 5.89057493,34.0761522 5.81634666,34.3048355 L5.81629579,34.3047292 Z" id="Path" fill="#FFFFFF"></path>
                    <path d="M27.2333392,9.89528078 C26.9327705,9.55544449 26.5073746,9.36660083 26.0423294,9.17810002 C25.3446552,8.9032173 24.5357792,8.6521029 23.934352,8.2516244 C23.3338708,7.84146887 22.9464027,7.36037697 22.9374555,6.47204379 C22.9371226,6.03611425 23.041312,5.49405444 23.3009363,4.82437602 C23.8661312,3.34847781 25.2695066,1.599754 26.8139763,0 L25.8423877,0 C24.4540267,1.4912409 23.2227968,3.09005205 22.6455699,4.56757882 C22.3633047,5.29647659 22.2341573,5.9226212 22.2334926,6.47204379 C22.2291654,7.33252013 22.5700123,7.99542719 23.0586527,8.45587932 C23.7906077,9.14828035 24.7998771,9.45632557 25.5910716,9.76163653 C25.986507,9.91096633 26.3276878,10.0592933 26.5364149,10.2119659 C26.7487805,10.3736813 26.8076962,10.4781487 26.8123573,10.6391955 C26.8126901,10.7329488 26.7843975,10.8661988 26.6955229,11.046334 C26.1489639,12.1739788 24.8085006,12.9795986 23.5523035,13.7074764 C22.9261904,14.0744324 22.3263568,14.4243229 21.8583718,14.8261214 C21.3956956,15.221877 21.0328794,15.7087117 21.0312178,16.3267907 C21.0308849,16.6833754 21.1550395,17.04866 21.3917076,17.4186074 C21.6290404,17.7899176 21.9805404,18.1749592 22.4664881,18.5964803 C23.3931699,19.4060686 23.7177428,20.2876047 23.7226851,21.2274516 C23.7293423,22.7049784 22.8359678,24.3342178 21.9138875,25.5710615 C21.7910628,25.7367968 21.6679057,25.8951608 21.5470749,26.0458363 C21.4781732,25.9989614 21.4056057,25.9564373 21.3270572,25.9209519 C20.8234365,25.6932801 20.2599459,25.7756421 19.8471783,26.0866873 L19.4330986,25.887138 C19.2144102,25.7816677 18.9517865,25.8744147 18.8466006,26.0947272 C18.7417471,26.3150362 18.8342849,26.5792048 19.0533082,26.684675 L19.3185991,26.8125765 C19.2593502,26.9398094 19.1994384,27.065028 19.1378556,27.1869039 L18.8692415,27.0338884 C18.6582051,26.9133583 18.3899233,26.988018 18.270098,27.2006266 C18.1506051,27.4129043 18.2244959,27.6830985 18.4358612,27.8036371 L18.7091364,27.9593269 C18.6412326,28.0708228 18.5726607,28.1803045 18.5030935,28.2867776 L18.3712789,28.1913529 C18.1742259,28.0487173 17.8996128,28.0939225 17.7578198,28.2921347 C17.6163507,28.4903468 17.6609592,28.7665752 17.8580122,28.9095365 L17.9888299,29.0042926 C17.1503597,30.0783666 16.2309891,30.8310156 15.411845,31.3607241 C14.7541097,31.7846023 14.1636579,32.0581479 13.7512312,32.2215433 C13.7246024,32.2319223 13.7009697,32.2409625 13.6756719,32.2506721 C13.2389598,31.7943171 12.5825709,31.5117287 11.5343766,31.6687556 C10.5673895,31.890736 9.76656599,32.1257792 9.03825801,32.4164075 C8.45974442,33.2839123 8.08797247,34.1668455 7.85892229,34.8515238 C7.4571642,36.0471393 7.37361372,36.9504724 7.37294906,36.959558 C7.32168886,37.5655771 6.8087511,38.0397176 6.2059691,38.0397176 C6.17235036,38.0397176 6.13839845,38.0380436 6.10444738,38.0350302 C6.03088546,38.0286687 5.9589903,38.0152759 5.8890908,37.9958567 C5.664412,37.9332456 5.46269788,37.804673 5.30858324,37.6208607 C5.10653678,37.3801262 5.0100085,37.0747724 5.03630496,36.7607273 C5.05261541,36.5849463 5.14381709,35.7435669 5.47867515,34.6031508 C5.51429126,34.4822778 5.55157156,34.3593991 5.59284234,34.2321748 C5.83782718,33.4784973 6.13640193,32.7727336 6.48458716,32.1164264 C6.72124678,31.5308328 7.05744267,30.9231251 7.52843561,30.3104461 C7.84565477,29.8986191 7.77109416,29.3063142 7.36234015,28.9869462 C6.95292149,28.6671926 6.36373934,28.7421917 6.04657983,29.1540187 C4.50211019,31.1519112 4.09266596,33.2206887 4.09596921,34.7712432 C4.09732067,35.8470315 4.28305539,36.6827367 4.41453769,37.1413888 C4.45947345,37.4822365 4.57397809,37.7922789 4.73907657,38.0433504 C5.30826795,38.9088839 6.77155602,38.8576273 7.75907926,38.1471407 C9.19899363,37.2920129 11.227809,35.962136 13.217938,35.5422262 C13.5424769,35.4481387 13.7971162,35.3520455 13.9951662,35.2506037 C14.4105753,35.1324136 15.5815603,34.7507234 16.9922469,33.8437047 C18.06609,33.1543123 19.2806183,32.1461518 20.3694588,30.7265673 L20.6181077,30.9063682 C20.8151607,31.0490038 21.0897738,31.0041328 21.2318991,30.8055864 C21.3733683,30.6073743 21.3287597,30.3311459 21.1317067,30.1881846 L20.8840633,30.0090608 C21.0125461,29.8172086 21.1387026,29.6189965 21.2615274,29.4137559 L21.394339,29.4894245 C21.6053753,29.6099546 21.8736572,29.5352948 21.9934824,29.3226863 C22.1133077,29.1100743 22.0390846,28.8402144 21.8277193,28.7196757 L21.6915759,28.641998 C21.7847809,28.4618628 21.8756511,28.2770477 21.9638542,28.0875354 L22.1196305,28.1625346 C22.3386512,28.2683392 22.6012749,28.1752579 22.7064608,27.9549455 C22.8113143,27.7349707 22.7187765,27.4708022 22.5000855,27.3653319 L22.1905269,27.2160021 C22.1828711,26.9930102 22.1252868,26.775384 22.0227613,26.5795119 C22.1718825,26.3960339 22.3250002,26.2011646 22.4784502,25.9942525 C23.4351266,24.6971524 24.4203491,22.9839139 24.4269957,21.2278187 C24.4319885,20.1128595 23.9982765,18.9831575 22.9268363,18.0607961 C22.4744793,17.6690604 22.1692495,17.326207 21.9844755,17.0362644 C21.799071,16.7453104 21.7354942,16.5162929 21.7354942,16.3267893 C21.73383,16.0123927 21.9182316,15.7083846 22.3163341,15.3635426 C22.9054992,14.8522796 23.8983823,14.3493822 24.8686927,13.7433888 C25.8372989,13.1336841 26.8039451,12.4114891 27.3262102,11.3604719 C27.4490349,11.1120404 27.5159435,10.8729772 27.5166338,10.6389369 C27.5186054,10.3526715 27.4037703,10.0884944 27.233346,9.89530504 L27.2333392,9.89528078 Z" id="Path" fill="#FFFFFF"></path>
                    <polygon id="Path" fill="#EF8130" points="58.6663855 18.7048991 27.6074204 18.7048991 28.1449896 22.3681163 30.7633023 22.8790451 31.1151347 25.6700432 43.7768033 28.6110398 44.7930431 36.5981528 48.533429 45.0609749 48.768427 48 58.6666667 48"></polygon>
                </g>
            </g>
        </g>
    </g>
</svg>