<?xml version="1.0" encoding="UTF-8"?>
<svg width="64px" height="64px" viewBox="0 0 64 64" version="1.1" xmlns="http://www.w3.org/2000/svg" xmlns:xlink="http://www.w3.org/1999/xlink">
    <title>Noun / noun_bike-trips Copy</title>
    <g id="Page-1" stroke="none" stroke-width="1" fill="none" fill-rule="evenodd">
        <g id="index" transform="translate(-237.000000, -582.000000)">
            <g id="Noun-/-noun_bike-trips-Copy" transform="translate(237.000000, 582.000000)">
                <g id="Group" transform="translate(5.751933, 24.952563)" fill="#EF8130">
                    <path d="M40.0000007,19.8754536 C42.7666736,19.8754536 45.0083422,22.0774699 45.0083422,24.7952035 C45.0083285,24.8010183 45.0083423,24.8077136 45.0083423,24.8144119 C45.0083423,27.5321455 42.7666736,29.7341618 40.0000008,29.7341618 C37.2333788,29.7341618 34.9833687,27.5321456 34.9833687,24.8144119 L34.9833688,24.794201 C34.983922,22.0769283 37.233719,19.8754536 40.0000007,19.8754536 Z M12.3500068,19.8754536 C15.1083382,19.8754536 17.3583483,22.0774699 17.3583483,24.7952035 C17.3583346,24.8010183 17.3583483,24.8077136 17.3583483,24.8144119 C17.3583483,27.5321455 15.1083382,29.7341618 12.3500068,29.7341618 C9.58333325,29.7341618 7.3250325,27.5321456 7.3250325,24.8144119 L7.3250326,24.794201 C7.32558792,22.0769283 9.58367347,19.8754536 12.3500068,19.8754536 Z M40.0037646,22.5599346 C38.7347417,22.5599346 37.7019458,23.5652127 37.695849,24.8040331 C37.7014251,26.0438959 38.7344218,27.0496809 40.0037646,27.0496809 C41.2700406,27.0496809 42.2995003,26.0384312 42.2995003,24.7945541 L42.299,24.804 L42.2941958,24.6608447 C42.2133008,23.4886691 41.2172791,22.5599346 40.0037646,22.5599346 Z M12.3483284,22.5599346 C11.0793048,22.5599346 10.0465089,23.5652127 10.040412,24.8040331 C10.0459882,26.0438959 11.0789849,27.0496809 12.3483284,27.0496809 C13.6145949,27.0496809 14.6440641,26.0384312 14.6440641,24.7945541 L14.644,24.804 L14.6387596,24.6608447 C14.5578639,23.4886691 13.5618338,22.5599346 12.3483284,22.5599346 Z M7.73335767,21.2752152 C6.95002233,22.2493425 6.49169917,23.4772315 6.49169917,24.7952036 L6.49169917,24.7952036 L0.71670525,24.7952036 C0.31667075,24.7952036 0,24.4759405 0,24.091176 L0,24.091176 L0,21.9792429 C0,21.5862845 0.31667075,21.2752152 0.71670525,21.2752152 L0.71670525,21.2752152 Z M35.3916938,21.2752152 C34.6083585,22.2493425 34.1500353,23.4772315 34.1500353,24.7952036 L34.1500353,24.7952036 L18.1916817,24.7952036 C18.1916817,23.4772315 17.7333585,22.2493425 16.9583646,21.2752152 L16.9583646,21.2752152 Z M51.7833463,21.2752152 C52.1750395,21.2752152 52.5000008,21.5862844 52.5000008,21.9792428 L52.5000008,21.9792428 L52.5000008,24.091176 C52.5000008,24.4759405 52.1750394,24.7952036 51.7833463,24.7952036 L51.7833463,24.7952036 L45.8416756,24.7952036 C45.8416756,23.4772315 45.3833524,22.2493425 44.6083585,21.2752152 L44.6083585,21.2752152 Z M37.2583523,0 C38.5166938,0 39.7416694,0.507523437 40.6000272,1.39981145 L40.6000272,1.39981145 L49.8083503,10.911854 C50.766704,11.9105131 51.2917081,13.2039035 51.2917081,14.5627953 L51.2917081,14.5627953 L51.2917081,20.4566225 L43.8166817,20.4566225 C42.7916979,19.5807224 41.4583341,19.0568611 40.0000008,19.0568611 C38.5416674,19.0568611 37.2083544,19.5807224 36.1833707,20.4566225 L36.1833707,20.4566225 L16.1666878,20.4566225 C15.141704,19.5807224 13.8083402,19.0568611 12.3500068,19.0568611 C10.8916728,19.0568611 9.55001825,19.5807224 8.5250345,20.4566225 L8.5250345,20.4566225 L1.21668492,20.4566225 L1.21668492,13.9815766 C1.21668492,13.0319811 1.38336183,12.0988235 1.708374,11.1983416 L1.708374,11.1983416 L5.05833942,2.02194981 C5.508372,0.810398709 6.67500808,0 7.97500608,0 L7.97500608,0 Z M37.1333321,3.61002162 L33.5416674,3.61002162 C33.0833443,3.61002162 32.7083341,3.97020435 32.7083341,4.42042033 L32.7083341,4.42042033 L32.7083341,9.34017031 C32.7083341,9.79038628 33.0833443,10.158763 33.5416674,10.158763 L33.5416674,10.158763 L42.066702,10.158763 C42.7916979,10.158763 43.1667081,9.29920064 42.6666776,8.78353327 L42.6666776,8.78353327 L38.0250048,3.97834837 C37.791698,3.74097442 37.4666858,3.61002162 37.1333321,3.61002162 L37.1333321,3.61002162 Z M28.6583463,3.61002162 L20.6749988,3.61002162 C20.2166756,3.61002162 19.8416654,3.97020435 19.8416654,4.42042033 L19.8416654,4.42042033 L19.8416654,9.34017022 C19.8416654,9.7903862 20.2166756,10.1587629 20.6749988,10.1587629 L20.6749988,10.1587629 L28.6583463,10.1587629 C29.1166695,10.1587629 29.4916797,9.7903862 29.4916797,9.34017022 L29.4916797,9.34017022 L29.4916797,4.42042033 C29.4916797,3.97020435 29.1166695,3.61002162 28.6583463,3.61002162 L28.6583463,3.61002162 Z M15.7833361,3.61002162 L9.241689,3.61002162 C8.72502642,3.61002162 8.26670325,3.92109084 8.09168492,4.40403251 L8.09168492,4.40403251 L6.38336175,9.07002065 C6.18336992,9.60212585 6.59169508,10.1587629 7.16669717,10.1587629 L7.16669717,10.1587629 L15.7833361,10.1587629 C16.2500008,10.1587629 16.6166694,9.7903862 16.6166694,9.34017022 L16.6166694,9.34017022 L16.6166694,4.42042033 C16.6166694,3.97020435 16.2500008,3.61002162 15.7833361,3.61002162 L15.7833361,3.61002162 Z" id="Combined-Shape"></path>
                </g>
                <path d="M26.9235033,19.1426232 C27.4003913,19.1426232 27.7877612,19.5231409 27.7877612,19.9915933 L27.7877612,19.9915933 L27.7877612,23.283551 C27.7877612,23.7520034 27.4003913,24.1325211 26.9235033,24.1325211 L26.9235033,24.1325211 L15.6531575,24.1325211 C15.1762695,24.1325211 14.7888997,23.7520034 14.7888997,23.283551 L14.7888997,23.283551 L14.7888997,19.9915934 C14.7888997,19.523141 15.1762695,19.1426232 15.6531575,19.1426232 L15.6531575,19.1426232 Z M40.7565112,19.1426232 C41.2333992,19.1426232 41.620769,19.5231409 41.620769,19.9915933 L41.620769,19.9915933 L41.620769,23.283551 C41.620769,23.7520034 41.2333992,24.1325211 40.7565112,24.1325211 L40.7565112,24.1325211 L29.4861661,24.1325211 C29.0092781,24.1325211 28.6210945,23.7520034 28.6210945,23.283551 L28.6210945,23.283551 L28.6210945,19.9915934 C28.6210945,19.523141 29.0092781,19.1426232 29.4861661,19.1426232 L29.4861661,19.1426232 Z M23.4526374,20.4848274 C23.2223314,20.4848274 23.0359707,20.6678915 23.0359707,20.8941237 L23.0359707,20.8941237 L22.977377,21.9709248 L19.5406908,21.9133675 L19.5406908,20.8941237 C19.5406908,20.6678915 19.3543302,20.4848274 19.1240242,20.4848274 C18.8937182,20.4848274 18.7073575,20.6678915 18.7073575,20.8941237 L18.7073575,20.8941237 L18.7073575,21.9133675 C18.7073575,22.3962092 19.1077481,22.7895175 19.5992846,22.7895175 L19.5992846,22.7895175 L22.977377,22.7895175 C23.4689134,22.7895175 23.8693041,22.3962093 23.8693041,21.9133675 L23.8693041,21.9133675 L23.8693041,20.8941237 C23.8693041,20.6678915 23.6829434,20.4848274 23.4526374,20.4848274 Z M37.2848314,20.4848274 C37.0545254,20.4848274 36.8681648,20.6678915 36.8681648,20.8941237 L36.8681648,20.8941237 L36.809571,21.9709248 L33.3736986,21.9133675 L33.3736986,20.8941237 C33.3736986,20.6678915 33.1873379,20.4848274 32.9570319,20.4848274 C32.7267259,20.4848274 32.5403653,20.6678915 32.5403653,20.8941237 L32.5403653,20.8941237 L32.5403653,21.9133675 C32.5403653,22.3962092 32.9407558,22.7895175 33.4322923,22.7895175 L33.4322923,22.7895175 L36.809571,22.7895175 C37.3011074,22.7895175 37.7014981,22.3962093 37.7014981,21.9133675 L37.7014981,21.9133675 L37.7014981,20.8941237 C37.7014981,20.6678915 37.5151374,20.4848274 37.2848314,20.4848274 Z M33.8400073,13.3333333 C34.3168953,13.3333333 34.7042651,13.7146504 34.7042651,14.1831028 L34.7042651,14.1831028 L34.7042651,17.4742611 C34.7042651,17.9427135 34.3168953,18.3240306 33.8400073,18.3240306 L33.8400073,18.3240306 L22.5696622,18.3240306 C22.0927742,18.3240306 21.7054043,17.9427134 21.7054043,17.474261 L21.7054043,17.474261 L21.7054043,14.1831028 C21.7054043,13.7146504 22.0927742,13.3333333 22.5696622,13.3333333 L22.5696622,13.3333333 Z M30.3691413,14.6763369 C30.1388353,14.6763369 29.9524747,14.8594011 29.9524747,15.0856332 L29.9524747,15.0856332 L29.8938809,16.1624343 L26.4571948,16.104877 L26.4571948,15.0856332 C26.4571948,14.8594011 26.2708341,14.6763369 26.0405281,14.6763369 C25.8102221,14.6763369 25.6238614,14.8594011 25.6238614,15.0856332 L25.6238614,15.0856332 L25.6238614,16.104877 C25.6238614,16.5877188 26.024252,16.981027 26.5157885,16.981027 L26.5157885,16.981027 L29.8938809,16.981027 C30.3854173,16.981027 30.785808,16.5877188 30.785808,16.104877 L30.785808,16.104877 L30.785808,15.0856332 C30.785808,14.8594011 30.5994473,14.6763369 30.3691413,14.6763369 Z" id="Combined-Shape" fill="#FFFFFF"></path>
            </g>
        </g>
    </g>
</svg>