<?xml version="1.0" encoding="UTF-8"?>
<svg width="64px" height="64px" viewBox="0 0 64 64" version="1.1" xmlns="http://www.w3.org/2000/svg" xmlns:xlink="http://www.w3.org/1999/xlink">
    <title>Noun / noun_bike-trips Copy 3</title>
    <g id="Page-1" stroke="none" stroke-width="1" fill="none" fill-rule="evenodd">
        <g id="index" transform="translate(-597.000000, -582.000000)">
            <g id="Noun-/-noun_bike-trips-Copy-3" transform="translate(597.000000, 582.000000)">
                <g id="noun_Delivery-Bike_4303170" transform="translate(8.000000, 12.000000)">
                    <path d="M24.538611,7.99176989 C23.8954276,8.00171918 23.2194866,8.26413179 22.6720563,8.73983238 L14.2968135,15.8324349 L21.116699,18.7270574 L24.7805134,14.9637372 L26.5487952,18.4285786 C26.7787285,18.879406 26.9299176,19.1119707 27.7198803,19.3252587 L31.7774161,20.4203028 L30.8224054,21.8809834 L24.4157699,21.8809834 L26.4335136,24.1313892 L29.3495722,24.1313892 L27.8572104,26.411021 L27.4502599,31.1848164 L31.3125098,25.2749361 L36.744606,36.0357187 C37.4236968,37.3794951 39.4647488,36.3683982 38.785658,35.0289746 L36.0100793,29.5363428 C36.7187779,29.2863668 37.4596042,29.1576478 38.2111397,29.1501859 C41.8749541,29.1501859 44.8439288,32.0783873 44.8439288,35.6862498 C44.8439288,39.2972214 41.8749541,42.224801 38.2111397,42.22107 C34.5492152,42.22107 31.5808704,39.2972214 31.5808704,35.6862498 C31.5808704,34.4102529 31.9619928,33.1634821 32.6769909,32.097664 L31.1121844,29.0538021 C29.3873694,30.8434312 28.4247992,33.2175814 28.4247992,35.6856279 C28.4247992,41.0159618 32.8048716,45.3327132 38.2111397,45.3327132 C43.6174077,45.3358207 48,41.0165837 48,35.6856279 C48,30.3577813 43.6174077,26.0385444 38.2111397,26.0410317 C36.9745393,26.0453845 35.7442385,26.2785711 34.5964618,26.7306421 L32.7494357,23.0786296 L34.2638459,20.7629316 L36.5845976,20.7629316 C37.2958161,20.7629316 37.9415192,20.4551253 38.3428001,19.989374 C38.7428211,19.5230009 38.9160586,18.9465637 38.9003097,18.379454 C38.8807811,17.8160752 38.6773059,17.2365289 38.2445273,16.7863234 C37.8111187,16.3323869 37.144627,16.0506975 36.4101003,16.0506975 C35.1602709,16.0283116 35.1602709,17.8707964 36.4101003,17.8707964 C36.7225576,17.8707964 37.10305,18.04864 37.10305,18.4148983 C37.10305,18.7419814 36.9909182,18.9459419 36.5852276,18.9459419 L34.882461,18.9459419 C35.0720773,18.239542 34.5504751,17.6954401 33.5501076,17.883233 L32.2448422,18.1288562 L29.5354087,16.4524002 L26.5072182,9.2665231 C26.1330254,8.377305 25.3619613,7.97498045 24.538611,7.99176989 Z" id="Path" fill="#EF8130"></path>
                    <path d="M24.538611,7.99176989 C23.8954276,8.00171918 23.2194866,8.26413179 22.6720563,8.73983238 L14.2968135,15.8324349 L21.116699,18.7270574 L24.7805134,14.9637372 L26.5487952,18.4285786 C26.7787285,18.879406 26.9299176,19.1119707 27.7198803,19.3252587 L31.7774161,20.4203028 L34.2638459,20.7629316 L34.882461,18.9459419 C35.0720773,18.239542 34.5504751,17.6954401 33.5501076,17.883233 L32.2448422,18.1288562 L29.5354087,16.4524002 L26.5072182,9.2665231 C26.1330254,8.377305 25.3619613,7.97498045 24.538611,7.99176989 Z" id="Path" fill="#FFFFFF"></path>
                    <path d="M13.3581815,16.9038494 C12.344585,18.4223603 12.4094703,20.1609993 14.1027875,21.5849919 L21.3201743,27.6633883 L22.0389522,37.0001783 C22.192661,39.0298342 25.4117276,39.0366743 25.5849651,37.0001783 L26.385637,27.6447334 C26.4706809,26.6603752 26.1752323,25.8121979 25.6082734,25.176065 L21.3006457,20.2735507 L13.3581815,16.9038494 Z" id="Path" fill="#FFFFFF"></path>
                    <path d="M13.7185154,30.439863 C15.0439393,31.4018353 15.959263,32.8165005 16.2874692,34.4034128 L11.5212347,34.4034128 L13.7185154,30.439863 Z M14.6867552,24.021947 L8.59383695,34.9891774 C8.17428736,35.7415927 8.72927713,36.6581714 9.59546433,36.6544404 L16.3403853,36.6544404 C15.8509108,39.8543818 13.0690325,42.2179609 9.78886031,42.22107 C6.1269358,42.22107 3.158591,39.2972214 3.158591,35.6893589 C3.158591,32.0982859 6.09543808,29.1831429 9.73594414,29.1545387 L11.393354,26.1753472 C10.8616725,26.087669 10.3268413,26.0416535 9.78886031,26.0416535 C4.38259226,26.0416535 0,30.3577813 0,35.6893589 C0,41.0165837 4.38259226,45.3333333 9.78886031,45.3333333 C14.8114862,45.3302242 19.0145414,41.5799624 19.5185049,36.6544404 L20.7821933,36.6544404 L20.648013,34.4040346 L19.4794477,34.4040346 C19.1052549,31.6735754 17.5675364,29.2297802 15.2480445,27.6913707 L16.4745656,25.4826276 L14.6867552,24.021947 Z" id="Shape" fill="#EF8130"></path>
                    <path d="M32.7626647,3.8659223 C32.7626647,6.00377671 31.020211,7.73246643 28.8720668,7.73246643 C26.7264423,7.73246643 24.9839887,6.00439854 24.9839887,3.8659223 C24.9839887,1.72931155 26.7264423,0 28.8720668,0 C31.020211,0 32.7626647,1.72931155 32.7626647,3.8659223 Z" id="Path" fill="#FFFFFF"></path>
                    <path d="M19.3093601,1.64785171 L22.3432201,5.14875931 C22.841514,5.72208734 22.7407213,6.60943994 22.1170665,7.13364333 L11.7832957,15.8672574 C11.1609008,16.3951918 10.2575463,16.3560164 9.75925245,15.7795793 L6.72539241,12.2792935 C6.22583863,11.7047218 6.3241115,10.817991 6.94839624,10.2944095 L17.2853168,1.56079539 C17.9083416,1.03223919 18.8098063,1.07141453 19.3093601,1.64785171 Z" id="Path" fill="#EF8130"></path>
                </g>
            </g>
        </g>
    </g>
</svg>