<?xml version="1.0" encoding="UTF-8"?>
<svg width="16px" height="16px" viewBox="0 0 16 16" version="1.1" xmlns="http://www.w3.org/2000/svg" xmlns:xlink="http://www.w3.org/1999/xlink">
    <title>noun / google copy 4</title>
    <g id="Page-1" stroke="none" stroke-width="1" fill="none" fill-rule="evenodd">
        <g id="index" transform="translate(-1303.000000, -13.000000)" fill="#0E76A8" fill-rule="nonzero">
            <g id="linkedin" transform="translate(1302.000000, 12.000000)">
                <path d="M15.4285714,1.5 C15.7187502,1.5 15.9698662,1.60602696 16.1819196,1.81808036 C16.393973,2.03013376 16.5,2.28124983 16.5,2.57142857 L16.5,15.4285714 C16.5,15.7187502 16.393973,15.9698662 16.1819196,16.1819196 C15.9698662,16.393973 15.7187502,16.5 15.4285714,16.5 L2.57142857,16.5 C2.28124983,16.5 2.03013376,16.393973 1.81808036,16.1819196 C1.60602696,15.9698662 1.5,15.7187502 1.5,15.4285714 L1.5,2.57142857 C1.5,2.28124983 1.60602696,2.03013376 1.81808036,1.81808036 C2.03013376,1.60602696 2.28124983,1.5 2.57142857,1.5 L15.4285714,1.5 Z M6.02008929,14.3571429 L6.05357143,14.3571429 L6.05357143,7.19196429 L3.81026786,7.19196429 L3.81026786,14.3571429 L6.02008929,14.3571429 Z M4.91517857,6.22098214 C5.2723216,6.22098214 5.5792409,6.0926341 5.8359375,5.8359375 C6.0926341,5.5792409 6.22098214,5.27790162 6.22098214,4.93191964 C6.22098214,4.58593767 6.0926341,4.28459838 5.8359375,4.02790179 C5.5792409,3.77120519 5.2723216,3.64285714 4.91517857,3.64285714 C4.55803554,3.64285714 4.25669626,3.77120519 4.01116071,4.02790179 C3.76562517,4.28459838 3.64285714,4.58593767 3.64285714,4.93191964 C3.64285714,5.27790162 3.76562517,5.5792409 4.01116071,5.8359375 C4.25669626,6.0926341 4.55803554,6.22098214 4.91517857,6.22098214 Z M14.3571429,14.3571429 L14.3571429,10.4397321 C14.3571429,9.32366088 14.2008927,8.5089284 13.8883929,7.99553571 C13.4642855,7.34821446 12.7388395,7.02455357 11.7120536,7.02455357 C11.1986609,7.02455357 10.7410714,7.1473216 10.3392857,7.39285714 C10.0044643,7.59375 9.75892874,7.8504466 9.60267857,8.16294643 L9.56919643,8.16294643 L9.56919643,7.19196429 L7.42633929,7.19196429 L7.42633929,14.3571429 L9.63616071,14.3571429 L9.63616071,10.8080357 C9.63616071,10.2499998 9.71428554,9.82589303 9.87053571,9.53571429 C10.0937502,9.15625017 10.4620537,8.96651786 10.9754464,8.96651786 C11.4888391,8.96651786 11.8236605,9.17857126 11.9799107,9.60267857 C12.0915177,9.87053571 12.1473214,10.294643 12.1473214,10.875 L12.1473214,14.3571429 L14.3571429,14.3571429 Z" id="Shape"></path>
            </g>
        </g>
    </g>
</svg>