<?xml version="1.0" encoding="UTF-8"?>
<svg width="16px" height="16px" viewBox="0 0 16 16" version="1.1" xmlns="http://www.w3.org/2000/svg" xmlns:xlink="http://www.w3.org/1999/xlink">
    <title>noun / google copy 3</title>
    <g id="Page-1" stroke="none" stroke-width="1" fill="none" fill-rule="evenodd">
        <g id="index" transform="translate(-1274.000000, -13.000000)" fill="#8A3AB9" fill-rule="nonzero">
            <g id="instagram" transform="translate(1273.000000, 12.000000)">
                <path d="M9,5.14955357 C9.69196446,5.14955357 10.3337052,5.32254481 10.9252232,5.66852679 C11.5167412,6.01450876 11.9854912,6.48325876 12.3314732,7.07477679 C12.6774552,7.66629481 12.8504464,8.30803554 12.8504464,9 C12.8504464,9.69196446 12.6774552,10.3337052 12.3314732,10.9252232 C11.9854912,11.5167412 11.5167412,11.9854912 10.9252232,12.3314732 C10.3337052,12.6774552 9.69196446,12.8504464 9,12.8504464 C8.30803554,12.8504464 7.66629481,12.6774552 7.07477679,12.3314732 C6.48325876,11.9854912 6.01450876,11.5167412 5.66852679,10.9252232 C5.32254481,10.3337052 5.14955357,9.69196446 5.14955357,9 C5.14955357,8.30803554 5.32254481,7.66629481 5.66852679,7.07477679 C6.01450876,6.48325876 6.48325876,6.01450876 7.07477679,5.66852679 C7.66629481,5.32254481 8.30803554,5.14955357 9,5.14955357 Z M9,11.5111607 C9.69196446,11.5111607 10.283482,11.2656252 10.7745536,10.7745536 C11.2656252,10.283482 11.5111607,9.69196446 11.5111607,9 C11.5111607,8.30803554 11.2656252,7.71651803 10.7745536,7.22544643 C10.283482,6.73437483 9.69196446,6.48883929 9,6.48883929 C8.30803554,6.48883929 7.71651803,6.73437483 7.22544643,7.22544643 C6.73437483,7.71651803 6.48883929,8.30803554 6.48883929,9 C6.48883929,9.69196446 6.73437483,10.283482 7.22544643,10.7745536 C7.71651803,11.2656252 8.30803554,11.5111607 9,11.5111607 Z M13.921875,4.98214286 C13.8995534,5.2276784 13.8046875,5.43973231 13.6372768,5.61830357 C13.4698661,5.79687483 13.2633927,5.88616071 13.0178571,5.88616071 C12.7723216,5.88616071 12.5602677,5.79687483 12.3816964,5.61830357 C12.2031252,5.43973231 12.1138393,5.2276784 12.1138393,4.98214286 C12.1138393,4.73660731 12.2031252,4.5245534 12.3816964,4.34598214 C12.5602677,4.16741088 12.7723216,4.078125 13.0178571,4.078125 C13.2633927,4.078125 13.4754466,4.16741088 13.6540179,4.34598214 C13.8325891,4.5245534 13.921875,4.73660731 13.921875,4.98214286 Z M16.4665179,5.88616071 C16.4888395,6.51116088 16.5,7.54910731 16.5,9 C16.5,10.4508927 16.4832589,11.4944196 16.4497768,12.1305804 C16.4162946,12.7667411 16.3214287,13.3191964 16.1651786,13.7879464 C15.9642857,14.3459823 15.6573659,14.8314734 15.2444196,15.2444196 C14.8314734,15.6573659 14.3459823,15.9642857 13.7879464,16.1651786 C13.3191964,16.3214287 12.7667411,16.4162946 12.1305804,16.4497768 C11.4944196,16.4832589 10.4508927,16.5 9,16.5 C7.54910731,16.5 6.50558036,16.4832589 5.86941964,16.4497768 C5.23325893,16.4162946 4.68080357,16.3102677 4.21205357,16.1316964 C3.65401769,15.9531252 3.16852662,15.6573659 2.75558036,15.2444196 C2.3426341,14.8314734 2.03571429,14.3459823 1.83482143,13.7879464 C1.67857126,13.3191964 1.58370536,12.7667411 1.55022321,12.1305804 C1.51674107,11.4944196 1.5,10.4508927 1.5,9 C1.5,7.54910731 1.51674107,6.50558036 1.55022321,5.86941964 C1.58370536,5.23325893 1.67857126,4.68080357 1.83482143,4.21205357 C2.03571429,3.65401769 2.3426341,3.16852662 2.75558036,2.75558036 C3.16852662,2.3426341 3.65401769,2.03571429 4.21205357,1.83482143 C4.68080357,1.67857126 5.23325893,1.58370536 5.86941964,1.55022321 C6.50558036,1.51674107 7.54910731,1.5 9,1.5 C10.4508927,1.5 11.4944196,1.51674107 12.1305804,1.55022321 C12.7667411,1.58370536 13.3191964,1.67857126 13.7879464,1.83482143 C14.3459823,2.03571429 14.8314734,2.3426341 15.2444196,2.75558036 C15.6573659,3.16852662 15.9642857,3.65401769 16.1651786,4.21205357 C16.3214287,4.68080357 16.4218752,5.23883946 16.4665179,5.88616071 Z M14.859375,13.4196429 C14.9933036,13.0401787 15.0825895,12.4375002 15.1272321,11.6116071 C15.1495537,11.1205355 15.1607143,10.4285716 15.1607143,9.53571429 L15.1607143,8.46428571 C15.1607143,7.54910731 15.1495537,6.85714286 15.1272321,6.38839286 C15.0825895,5.54017874 14.9933036,4.93750017 14.859375,4.58035714 C14.5915179,3.88839269 14.1116073,3.40848214 13.4196429,3.140625 C13.0624998,3.00669643 12.4598213,2.91741054 11.6116071,2.87276786 C11.1205355,2.85044626 10.4285716,2.83928571 9.53571429,2.83928571 L8.46428571,2.83928571 C7.5714284,2.83928571 6.87946446,2.85044626 6.38839286,2.87276786 C5.56249983,2.91741054 4.95982126,3.00669643 4.58035714,3.140625 C3.88839269,3.40848214 3.40848214,3.88839269 3.140625,4.58035714 C3.00669643,4.93750017 2.91741054,5.54017874 2.87276786,6.38839286 C2.85044626,6.87946446 2.83928571,7.5714284 2.83928571,8.46428571 L2.83928571,9.53571429 C2.83928571,10.4285716 2.85044626,11.1205355 2.87276786,11.6116071 C2.91741054,12.4375002 3.00669643,13.0401787 3.140625,13.4196429 C3.43080374,14.1116073 3.91071429,14.5915179 4.58035714,14.859375 C4.95982126,14.9933036 5.56249983,15.0825895 6.38839286,15.1272321 C6.87946446,15.1495537 7.5714284,15.1607143 8.46428571,15.1607143 L9.53571429,15.1607143 C10.4508927,15.1607143 11.1428571,15.1495537 11.6116071,15.1272321 C12.4598213,15.0825895 13.0624998,14.9933036 13.4196429,14.859375 C14.1116073,14.5691963 14.5915179,14.0892857 14.859375,13.4196429 Z" id="Shape"></path>
            </g>
        </g>
    </g>
</svg>