<?xml version="1.0" encoding="UTF-8"?>
<svg width="16px" height="16px" viewBox="0 0 16 16" version="1.1" xmlns="http://www.w3.org/2000/svg" xmlns:xlink="http://www.w3.org/1999/xlink">
    <title>noun / google copy 2</title>
    <g id="Page-1" stroke="none" stroke-width="1" fill="none" fill-rule="evenodd">
        <g id="index" transform="translate(-1246.000000, -13.000000)" fill="#3E64B5" fill-rule="nonzero">
            <g id="Group" transform="translate(1245.000000, 12.000000)">
                <path d="M9.50223214,16.5 L9.50223214,10.6741071 L7.56026786,10.6741071 L7.56026786,8.43080357 L9.50223214,8.43080357 L9.50223214,6.75669643 C9.50223214,5.79687483 9.77008929,5.06026769 10.3058036,4.546875 C10.8415179,4.03348231 11.5446429,3.77678571 12.4151786,3.77678571 C13.107143,3.77678571 13.6875,3.79910731 14.15625,3.84375 L14.15625,5.88616071 L12.9508929,5.88616071 C12.5267855,5.88616071 12.2254463,5.98660714 12.046875,6.1875 C11.9129464,6.34375017 11.8459821,6.61160731 11.8459821,6.99107143 L11.8459821,8.43080357 L14.0892857,8.43080357 L13.7879464,10.6741071 L11.8459821,10.6741071 L11.8459821,16.5 L15.6629464,16.5 C15.908482,16.5 16.1093748,16.4162946 16.265625,16.2488839 C16.4218752,16.0814732 16.5,15.8861609 16.5,15.6629464 L16.5,2.33705357 C16.5,2.09151803 16.4162946,1.89062517 16.2488839,1.734375 C16.0814732,1.57812483 15.8861609,1.5 15.6629464,1.5 L2.33705357,1.5 C2.09151803,1.5 1.89062517,1.57812483 1.734375,1.734375 C1.57812483,1.89062517 1.5,2.09151803 1.5,2.33705357 L1.5,15.6629464 C1.5,15.8861609 1.57812483,16.0814732 1.734375,16.2488839 C1.89062517,16.4162946 2.09151803,16.5 2.33705357,16.5 L9.50223214,16.5 Z" id="Facebook"></path>
            </g>
        </g>
    </g>
</svg>