<?xml version="1.0" encoding="UTF-8"?>
<svg width="16px" height="13px" viewBox="0 0 16 13" version="1.1" xmlns="http://www.w3.org/2000/svg" xmlns:xlink="http://www.w3.org/1999/xlink">
    <title>noun / google copy</title>
    <g id="Page-1" stroke="none" stroke-width="1" fill="none" fill-rule="evenodd">
        <g id="index" transform="translate(-1217.000000, -15.000000)" fill="#1DA1F2" fill-rule="nonzero">
            <g id="twitter" transform="translate(1216.000000, 12.000000)">
                <path d="M14.9472656,6.09375 C15.5527345,5.63762034 16.0703124,5.09224744 16.5,4.45763221 C15.9140625,4.71544486 15.328125,4.88401427 14.7421875,4.96334135 C15.4062501,4.546875 15.8554688,3.97175496 16.0898438,3.23798077 C15.4843749,3.59495192 14.8300781,3.84284841 14.1269531,3.98167067 C13.8339844,3.68419471 13.4970703,3.44621394 13.1162109,3.26772837 C12.7353516,3.08924279 12.3203124,3 11.8710938,3 C11.3242186,3 10.8164062,3.13882227 10.3476562,3.41646635 C9.87890625,3.69411043 9.50781235,4.07587155 9.234375,4.5617488 C8.96093765,5.04762605 8.82421875,5.56820898 8.82421875,6.1234976 C8.82421875,6.36147837 8.84375015,6.59945913 8.8828125,6.8374399 C7.63281235,6.77794471 6.45605484,6.46063687 5.35253906,5.88551683 C4.24902329,5.31039679 3.31640625,4.53695929 2.5546875,3.56520433 C2.26171875,4.06099775 2.11523438,4.58158068 2.11523438,5.12695312 C2.11523438,5.67232557 2.24218735,6.17307707 2.49609375,6.62920673 C2.75000015,7.08533639 3.08203125,7.46213942 3.4921875,7.75961538 C3.0039061,7.7397835 2.54492202,7.60096169 2.11523438,7.34314904 L2.11523438,7.40264423 C2.11523438,8.13641842 2.34960938,8.79086554 2.81835938,9.36598558 C3.28710938,9.94110562 3.87304688,10.3079929 4.57617188,10.4666466 C4.30273452,10.5261418 4.02929673,10.5558894 3.75585938,10.5558894 C3.58007812,10.5558894 3.3945314,10.5459737 3.19921875,10.5261418 C3.3945314,11.1409256 3.75097641,11.6515924 4.26855469,12.058143 C4.78613296,12.4646937 5.3867189,12.6679688 6.0703125,12.6679688 C4.93749985,13.5603966 3.65820327,14.0066106 2.23242188,14.0066106 C1.95898452,14.0066106 1.7148436,13.9966949 1.5,13.976863 C2.9257814,14.9089542 4.49804673,15.375 6.21679688,15.375 C8.01367173,15.375 9.6054689,14.9089542 10.9921875,13.976863 C12.2617186,13.1439303 13.2480469,12.0234373 13.9511719,10.6153846 C14.6347655,9.2866585 14.9765625,7.90835337 14.9765625,6.48046875 C14.9765625,6.30198317 14.966797,6.17307707 14.9472656,6.09375 Z" id="Path"></path>
            </g>
        </g>
    </g>
</svg>