<?xml version="1.0" encoding="UTF-8"?>
<svg width="15px" height="20px" viewBox="0 0 15 20" version="1.1" xmlns="http://www.w3.org/2000/svg" xmlns:xlink="http://www.w3.org/1999/xlink">
    <title>noun / location</title>
    <g id="Page-1" stroke="none" stroke-width="1" fill="none" fill-rule="evenodd">
        <g id="index" transform="translate(-631.000000, -3432.000000)" fill="#48525D" fill-rule="nonzero">
            <g id="location-pin" transform="translate(626.000000, 3430.000000)">
                <path d="M12.25,2 L12.25,2 C8.23894843,2 5,5.22925795 5,9.22830902 C5,10.6226513 5.44675151,11.9540545 6.06831882,13.0481774 L10.7932016,21.2011581 C11.0894173,21.7337194 11.6867046,22 12.25,22 C12.8133439,22 13.3814468,21.7337194 13.7067984,21.2011581 L18.4316812,13.0530189 C19.0581045,11.9587991 19.5,10.6516033 19.5,9.23305366 C19.5,5.23409941 16.2610516,2 12.25,2 Z M12.25,11.3633956 C10.7932016,11.3633956 9.60348292,10.1772364 9.60348292,8.72479654 C9.60348292,7.27235668 10.7932016,6.08619746 12.25,6.08619746 C13.7067984,6.08619746 14.8965171,7.27235668 14.8965171,8.72479654 C14.8965171,10.1820779 13.7067984,11.3633956 12.25,11.3633956 Z" id="Shape"></path>
            </g>
        </g>
    </g>
</svg>