<?xml version="1.0" encoding="UTF-8"?>
<svg width="20px" height="14px" viewBox="0 0 20 14" version="1.1" xmlns="http://www.w3.org/2000/svg" xmlns:xlink="http://www.w3.org/1999/xlink">
    <title>noun / location copy 2</title>
    <g id="Page-1" stroke="none" stroke-width="1" fill="none" fill-rule="evenodd">
        <g id="index" transform="translate(-628.000000, -3537.000000)" fill="#48525D" fill-rule="nonzero">
            <g id="Group" transform="translate(626.000000, 3532.000000)">
                <g id="noun_Email_1824069" transform="translate(0.000000, 0.000000)">
                    <g id="Group" transform="translate(1.999999, 5.000000)">
                        <path d="M0.360001246,0.86 L7.87250101,8.38 C8.43540661,8.94486356 9.20004654,9.26236571 9.99750094,9.26236571 C10.7949553,9.26236571 11.5595953,8.94486356 12.1225009,8.38 L12.1225009,8.38 L19.6400006,0.8625 C19.8738088,1.19577825 19.9994874,1.59288773 20.0000006,2 L20.0000006,2 L20.0000006,12 C20.0000006,13.1045695 19.1045702,14 18.0000006,14 L18.0000006,14 L2.00000063,14 C0.89543173,14 6.27628879e-07,13.1045695 6.27628879e-07,12 L6.27628879e-07,12 L6.27628879e-07,2 C-0.000324154677,1.59198439 0.125408515,1.19383093 0.360001246,0.86 L0.360001246,0.86 Z M18.0000007,0 C18.3054327,0.000190551502 18.6066584,0.0712182095 18.8800007,0.2075 L18.8800007,0.2075 L11.4150009,7.6625 C11.0400163,8.03839397 10.5309526,8.24975436 10.0000009,8.25002073 C9.47048238,8.25240954 8.96161948,8.04472874 8.58500099,7.6725 L8.58500099,7.6725 L1.12000122,0.2075 C1.3933435,0.0712182095 1.69456922,0.000190551502 2.00000119,0 L2.00000119,0 Z" id="Combined-Shape"></path>
                    </g>
                </g>
            </g>
        </g>
    </g>
</svg>