<?xml version="1.0" encoding="UTF-8"?>
<svg width="21px" height="21px" viewBox="0 0 21 21" version="1.1" xmlns="http://www.w3.org/2000/svg" xmlns:xlink="http://www.w3.org/1999/xlink">
    <title>noun / location copy</title>
    <g id="Page-1" stroke="none" stroke-width="1" fill="none" fill-rule="evenodd">
        <g id="index" transform="translate(-627.000000, -3494.000000)" fill="#48525D" fill-rule="nonzero">
            <g id="Group" transform="translate(626.000000, 3493.000000)">
                <g id="Group" transform="translate(1.737039, 1.736264)">
                    <path d="M0.858764034,1.66990471 L6.79805946,7.60875248 C6.73739318,7.64852998 6.67761579,7.68608527 6.61850505,7.72275169 C5.56917842,8.50430183 7.01716918,11.1291725 7.94427437,12.0567217 C8.64138103,12.7527169 10.3024815,13.7473766 11.4138078,13.7473766 C11.7784721,13.7473766 12.0835813,13.6404885 12.2766912,13.3811569 C12.3122465,13.3220462 12.3506907,13.2620467 12.390246,13.2016026 L12.390246,13.2016026 L18.329097,19.1404504 C17.0737717,19.9688891 16.0524448,20 15.9053347,20 L15.7820873,19.9993002 C15.0396295,19.9843293 10.4827946,19.6796497 5.40184615,14.5987041 C0.382351304,9.58021553 0.0231351894,5.07224351 0.000618286561,4.24673217 L-6.24806684e-05,4.05856063 C0.00595704202,3.82456318 0.0798318068,2.85057287 0.858764034,1.66990471 L0.858764034,1.66990471 Z M13.8289035,11.8796118 C15.0735622,11.3711709 15.3142273,11.6031693 15.3142273,11.6031693 C16.0317783,11.9360558 16.9939944,12.6493842 17.9364328,13.5929333 C18.8804268,14.5369267 19.5939778,15.4973645 19.9266423,16.2153595 C19.9266423,16.2153595 20.2857512,17.3815737 19.4064234,18.2582343 C19.4086456,18.2622343 19.4064234,18.2582343 19.3973124,18.2671231 C19.3957568,18.2693453 19.3955346,18.2706786 19.3955346,18.2706786 L19.3955346,18.2706786 L19.2127302,18.444983 L19.2127302,18.444983 L19.0315369,18.6071208 L12.928687,12.5047186 C13.1264635,12.3084977 13.4689058,12.025833 13.8289035,11.8796118 Z M1.74031396,0.592801061 C2.61608615,-0.286526183 3.78385648,0.0725824414 3.78385648,0.0725824414 C4.50185189,0.406802349 5.46295687,1.1185752 6.40650641,2.06256866 C7.34894484,3.00611768 8.0631625,3.96633326 8.39627148,4.68499494 C8.39627148,4.68499494 8.62738112,4.92610439 8.12071769,6.17031799 C7.97360752,6.53053772 7.69183154,6.87275757 7.49427724,7.0707562 L7.49427724,7.0707562 L1.39209396,0.968354016 C1.49653774,0.847688185 1.60809258,0.726355692 1.72853626,0.604800978 L1.72853626,0.604800978 C1.72853626,0.603245433 1.73031403,0.603245433 1.73164735,0.601912109 C1.74031396,0.592801061 1.73520288,0.590578854 1.74031396,0.592801061 Z" id="Combined-Shape"></path>
                </g>
            </g>
        </g>
    </g>
</svg>