<?xml version="1.0" encoding="UTF-8"?>
<svg width="90px" height="101px" viewBox="0 0 90 101" version="1.1" xmlns="http://www.w3.org/2000/svg" xmlns:xlink="http://www.w3.org/1999/xlink">
    <title>Logo_AdReise Copy</title>
    <g id="Page-1" stroke="none" stroke-width="1" fill="none" fill-rule="evenodd">
        <g id="index" transform="translate(-120.000000, -28.000000)">
            <g id="Logo_AdReise-Copy" transform="translate(120.000000, 30.000000)">
                <path d="M3.42,33.1707922 L28.2839063,69.9587631 L26.1,69.9587631 C26.1,69.1780528 25.4714063,68.5469905 24.69375,68.5469905 C23.9160938,68.5469905 23.2875,69.1780528 23.2875,69.9587631 L23.2875,72.7823083 C23.2875,73.5630186 23.9160938,74.1940809 24.69375,74.1940809 C25.4714063,74.1940809 26.1,73.5630186 26.1,72.7823083 L63.9,72.7823083 C63.9,73.5630186 64.5285938,74.1940809 65.30625,74.1940809 C66.0839063,74.1940809 66.7125,73.5630186 66.7125,72.7823083 L66.7125,69.9587631 C66.7125,69.1780528 66.0839063,68.5469905 65.30625,68.5469905 C64.5285938,68.5469905 63.9,69.1780528 63.9,69.9587631 L61.7160938,69.9587631 L86.5814063,33.1707922 C88.5248438,32.7952607 1.47515625,32.7952607 3.42,33.1707922 Z M6.08108108,33.0528549 L46.2162162,32.840003 L46.2162162,69.9587631 L31.6814063,69.9587631 L6.08108108,33.0528549 Z M46.2162162,69.9587631 L46.2162162,32.840003 L83.615625,33.0832623 L58.3185938,69.9587631 L46.2162162,69.9587631 Z" id="Shape-Copy" fill="#EF8130" fill-rule="nonzero"></path>
                <g id="Group-5-Copy">
                    <g id="Group">
                        <path d="M82.10895,12.9543197 C77.5193351,1.61008257 60.1386086,0.0921949447 45,0.00249652245 C31.2120704,-0.0791989334 20.1943243,1.84506881 13.6462201,5.6383805 C-0.0914470246,13.5966004 2.43161977,46.8274117 20.2747252,46.8274117 C29.2292764,46.8274117 32.1265044,41.3725001 35.4254167,37.2328218 C38.724329,33.0931436 41.5016942,29.3886845 45,29.3886845 C49.4023739,29.3886845 53.6248804,36.0627244 57.1308925,41.06061 C60.6369046,46.0584956 67.3052947,48.0024878 72.8828694,45.9693323 C84.3690962,41.7823361 86.6985649,24.2985569 82.10895,12.9543197 Z" id="Path-2" stroke="#EF8130" stroke-width="3.87931034"></path>
                        <path d="M5.81896552,14.8390118 L5.81896552,33.5798732 L1.93965517,33.5798732 C0.868413201,33.5798732 2.03409731e-15,32.71146 0,31.640218 L0,16.778667 C-6.06916306e-16,15.707425 0.868413201,14.8390118 1.93965517,14.8390118 L5.81896552,14.8390118 Z M88.0603448,14.8390118 C89.1315868,14.8390118 90,15.707425 90,16.778667 L90,16.778667 L90,31.640218 C90,32.71146 89.1315868,33.5798732 88.0603448,33.5798732 L88.0603448,33.5798732 L84.1810345,33.5798732 L84.1810345,14.8390118 Z" id="Combined-Shape" fill="#EF8130"></path>
                    </g>
                    <path d="M44.489222,4.19359819 C50.381828,4.19359819 56.3476528,4.38615931 61.2562994,5.0024772 C66.1089128,5.6117597 69.9738022,7.06234138 72.8855041,8.85428199 C78.7425292,12.4588547 80.6067519,20.5369093 79.5258621,29.2806441 C78.4449722,38.0243789 74.9490896,40.9488772 69.9218139,42.438691 C68.2255033,42.7050287 65.0044846,42.4882208 62.1474008,39.9502349 C59.2903171,37.412249 58.2338307,34.6927592 56.2975986,32.0787627 C52.95637,27.5679608 50.3187157,24.5852792 45,24.5593672 C40.9702756,24.539735 38.3858205,26.8615188 35.448376,30.177588 C29.9099618,36.4298813 27.070112,43.2675529 19.9963177,42.438691 C13.2780518,41.6514877 10.1396804,36.2599277 9.4539654,29.2806441 C8.76825039,22.3013605 9.19143474,13.2625323 17.7326554,8.85428199 C22.0837633,6.60861089 26.1556508,5.33902444 30.3918713,5.0024772 C34.4713478,4.67838251 38.596616,4.19359819 44.489222,4.19359819 Z M69.220564,17.1704647 L68.8309623,27.9304897 L74.9265779,21.6149225 L69.220564,17.1704647 Z M24.212988,17.3279826 L24.212988,26.9530293 L30.363703,21.3310129 L24.212988,17.3279826 Z M44.5821263,7.76444307 C33.8917299,7.76444307 28.7503153,8.51390441 24.2796406,9.57743989 L23.7761297,9.69915846 C23.4420165,9.78116745 23.1106754,9.86487182 22.7800091,9.9500844 C20.8898622,10.4371746 16.499134,12.1414992 14.3999011,16.829462 C13.0004126,19.9547705 12.7393269,21.8101564 13.6166442,22.3956197 L13.6166442,22.3956197 L24.2288628,15.8821114 L31.4338088,20.7347541 L44.5821263,9.27788994 L50.5093219,14.4794638 L52.879001,12.925838 L62.0261787,20.1496667 L68.6003265,15.2986215 L76.0769396,21.1916348 C76.0769396,19.5016533 75.8428718,18.0475957 75.3747362,16.829462 C73.9310613,13.0728815 71.0787118,10.822257 67.0990256,9.9500844 C59.1208733,8.20162338 56.4827562,7.76444307 44.5821263,7.76444307 Z M45.4286434,11.4655787 L45.4286434,21.6703909 L51.7505334,17.0434514 L45.4286434,11.4655787 Z" id="Combined-Shape" fill="#FFFFFF"></path>
                </g>
                <path d="M17.8694581,90.1238664 L18.6043171,88.0932504 L22.8662851,88.0932504 L23.613996,90.1238664 L26.128704,90.1238664 L21.7960501,79.4138664 L19.6081501,79.4138664 L15.4102892,90.1238664 L17.8694581,90.1238664 Z M22.137546,86.0736504 L19.3272421,86.0736504 L20.725203,82.2442135 L22.137546,86.0736504 Z M30.262665,90.3703496 C31.2640499,90.3703496 32.156805,90.0260996 32.8502011,89.4359785 L33.1139732,90.1240196 L34.7636193,90.1240196 L34.7636193,78.8840276 L32.5298189,78.8838744 L32.5298189,82.3126045 C31.890432,81.8760955 31.115946,81.6282356 30.262665,81.6282356 C27.7562189,81.6282356 25.9188419,83.4893276 25.9188419,85.9930196 C25.9188419,88.4939577 27.7562189,90.3703496 30.262665,90.3703496 Z M30.4448883,88.2574196 C29.1471422,88.2574196 28.1957883,87.2907657 28.1957883,85.9930196 C28.1957883,84.6952734 29.1471422,83.7286196 30.4448883,83.7286196 C31.7426344,83.7286196 32.6967424,84.6980276 32.6967424,85.9930196 C32.6967424,87.2852577 31.7426344,88.2574196 30.4448883,88.2574196 Z M38.6748119,90.1238664 L38.6748119,86.4685433 L40.1613599,86.4685433 L42.2536349,90.1238664 L44.8420888,90.1238664 L42.4727308,86.0742625 C43.6574097,85.5026545 44.4248577,84.3574494 44.4248577,82.9565814 C44.4248577,80.8910814 42.8253958,79.4138664 40.6804888,79.4138664 L36.3576269,79.4138664 L36.3576269,90.1238664 L38.6748119,90.1238664 Z M40.5288657,84.3279203 L38.6748119,84.3279203 L38.6748119,81.5544895 L40.5288657,81.5544895 C41.4984267,81.5544895 42.0770728,82.1400205 42.0770728,82.9412814 C42.0770728,83.7451433 41.4984267,84.3279203 40.5288657,84.3279203 Z M49.2318658,90.3574972 C51.1498738,90.3574972 52.7312818,89.2099972 53.3321129,87.4087283 L50.9843279,87.4087283 C50.644974,87.9999203 50.007882,88.3671203 49.2317131,88.3671203 C48.148167,88.3671203 47.406882,87.7462463 47.212725,86.6186363 L53.465682,86.6186363 C53.4935281,86.4003052 53.5088281,86.1819742 53.5088281,85.9636431 L53.5089811,85.9636433 C53.5089811,83.5837283 51.7689121,81.6280822 49.231866,81.6280822 C46.7797349,81.6280822 44.9464888,83.5044742 44.9464888,85.9928662 C44.9464888,88.4687123 46.7922808,90.3574972 49.2318658,90.3574972 Z M51.2753342,85.0929203 L47.2716303,85.0929203 C47.5311184,84.1150972 48.2372133,83.5350742 49.2317133,83.5350742 C50.2341692,83.5350742 50.9595422,84.0828142 51.2753342,85.0929203 Z M56.696943,80.7602664 L56.696943,78.6835975 L54.471558,78.6835975 L54.471558,80.7602664 L56.696943,80.7602664 Z M56.701227,90.1238664 L56.701227,81.8618664 L54.467427,81.8618664 L54.467427,90.1238664 L56.701227,90.1238664 Z M61.1480731,90.3574975 C63.2343811,90.3574975 64.6127581,89.2600285 64.6127581,87.5742746 C64.6127581,85.5615596 62.8921199,85.2763676 61.544343,85.0343215 C60.6861661,84.8785676 59.9809891,84.7506596 59.9809891,84.1998596 C59.9809891,83.7269365 60.3913352,83.4083904 61.0867202,83.4083904 C61.8656432,83.4083904 62.3260202,83.7324443 62.3344352,84.3889674 L64.4542503,84.3889674 C64.4458352,82.7379443 63.1369202,81.6279293 61.1424122,81.6279293 C59.1479042,81.6279293 57.8181811,82.7073443 57.8181811,84.2706982 C57.8181811,86.2179293 59.49705,86.5712062 60.8169811,86.7909142 C61.6904581,86.9368761 62.4068042,87.10793 62.4068042,87.6726531 C62.4068042,88.22483 61.8518731,88.505738 61.2316112,88.505738 C60.4305032,88.505738 59.8671571,88.138538 59.8559881,87.4027611 L57.6778801,87.4027611 C57.6890491,89.17343 59.0744641,90.357038 61.148226,90.357038 L61.1480731,90.3574975 Z M69.3585659,90.3574972 C71.2765739,90.3574972 72.8579819,89.2099972 73.4588129,87.4087283 L71.111028,87.4087283 C70.7716741,87.9999203 70.1345821,88.3671203 69.3584132,88.3671203 C68.2748671,88.3671203 67.5335821,87.7462463 67.3394251,86.6186363 L73.5923821,86.6186363 C73.6202282,86.4003052 73.6355282,86.1819742 73.6355282,85.9636431 L73.6356811,85.9636433 C73.6356811,83.5837283 71.8956122,81.6280822 69.3585661,81.6280822 C66.906435,81.6280822 65.0731889,83.5044742 65.0731889,85.9928662 C65.0731889,88.4687123 66.9189809,90.3574972 69.3585659,90.3574972 Z M71.4020343,85.0929203 L67.3983304,85.0929203 C67.6578185,84.1150972 68.3639134,83.5350742 69.3584134,83.5350742 C70.3608692,83.5350742 71.0862423,84.0828142 71.4020343,85.0929203 Z" id="AdReise" fill="#FFFFFF" fill-rule="nonzero"></path>
                <rect id="Rectangle" fill="#EF8130" fill-rule="nonzero" x="13.2" y="96.3008217" width="63.6" height="2.69917833" rx="1.34958917"></rect>
            </g>
        </g>
    </g>
</svg>