<?xml version="1.0" encoding="UTF-8"?>
<svg width="64px" height="64px" viewBox="0 0 64 64" version="1.1" xmlns="http://www.w3.org/2000/svg" xmlns:xlink="http://www.w3.org/1999/xlink">
    <title>Noun / noun_bike-trips</title>
    <g id="Page-1" stroke="none" stroke-width="1" fill="none" fill-rule="evenodd">
        <g id="index" transform="translate(-58.000000, -582.000000)">
            <g id="Noun-/-noun_bike-trips" transform="translate(58.000000, 582.000000)">
                <g id="Group" transform="translate(6.666667, 25.482614)" fill="#EF8130">
                    <path d="M33.0600171,0 L40.7594933,14.8268086 C41.5831495,14.5627111 42.4594868,14.4182121 43.3701977,14.4182121 C48.136718,14.4199098 52,18.3204406 52,23.1347486 C52,27.9483021 48.1369048,31.8488329 43.3701977,31.8507193 C38.6025565,31.8488329 34.7385272,27.9483021 34.7385272,23.1347486 C34.7385272,20.1621431 36.2139721,17.5411645 38.4633812,15.9682755 L38.4633812,15.9682755 L35.9614017,11.1486855 L29.0708235,24.8564754 L17.0910998,24.8564754 C16.3005094,28.8445357 12.8151491,31.8488329 8.63129684,31.8507193 C7.28942282,31.8497761 6.0222738,31.5315387 4.89000338,30.979575 C1.99870668,29.5708037 0,26.5932935 0,23.1347486 C0,18.320252 3.86365563,14.4197212 8.63129684,14.4182121 C12.8153359,14.4197212 16.3005094,17.424207 17.0910998,21.4132105 L17.0910998,21.4132105 L18.9190599,21.4132105 C18.1549969,17.1123834 14.4604065,14.173356 12.3875353,12.8392865 L12.3875353,12.8392865 L1.81152058,12.8390979 L3.72933746,9.57692838 L16.6156621,9.57692838 L22.9344073,12.8266476 L20.7825144,19.5352889 C20.5590866,20.2302425 20.6177457,20.9710359 20.9467225,21.6218475 C21.2758861,22.2726591 21.8361367,22.7552029 22.5243539,22.9802516 C22.7956056,23.0692902 23.0765716,23.1141868 23.3595925,23.1141868 C24.5376319,23.1141868 25.5731335,22.3532088 25.9364838,21.2209853 L25.9364838,21.2209853 L28.8005058,12.2920389 C29.2129878,11.0053183 28.6463855,9.62559777 27.4530274,9.01138254 L27.4530274,9.01138254 L21.472226,5.935779 L21.8449169,5.05765495 L32.7994137,5.05765495 L31.5135834,2.58249585 L30.5709277,2.58249585 C30.5683123,2.55759524 30.5677519,2.53288326 30.5642024,2.507794 C30.4347414,1.58250969 29.6406015,0.884915124 28.7164402,0.884915124 C28.629012,0.884915124 28.5404629,0.890951637 28.4535951,0.903590587 C28.0450362,0.961880669 27.6560926,1.00507947 27.2798523,1.03903485 L27.2798523,1.03903485 L27.2798523,0 L33.0600171,0 Z M8.63129684,17.861477 C5.74784627,17.8677021 3.41474525,20.222131 3.40895407,23.1349373 C3.41474525,26.0451026 5.74765946,28.4016065 8.63129684,28.4059453 C10.9158266,28.4023611 12.8502698,26.9194539 13.5595968,24.8564754 L13.5595968,24.8566641 L8.41833061,24.8566641 L8.41833061,21.4135878 L13.5595968,21.4135878 C12.8513907,19.3489116 10.9156398,17.8665703 8.63129684,17.861477 Z M43.3700108,17.8612883 C43.0333748,17.8620429 42.7038376,17.8975074 42.3849487,17.9595703 L42.3849487,17.9595703 L44.9284005,22.8582009 L42.6632993,24.0570147 L40.0669795,19.0550088 C38.897907,20.0217942 38.1510307,21.4886669 38.1476681,23.1347486 C38.1534593,26.044914 40.4859998,28.4014179 43.3700108,28.4057566 C46.2519669,28.4016065 48.5863756,26.0451026 48.5893646,23.1347486 C48.5865624,20.2219423 46.2521537,17.8675135 43.3700108,17.8612883 Z M39.9066944,1.93696621 L39.9066944,7.20948331 C38.7211824,7.20948331 37.7321971,6.40681568 37.4127478,5.31496133 C37.3441876,5.0776509 37.29599,4.83222891 37.29599,4.57360204 C37.29599,3.1172932 38.4646888,1.93696621 39.9066944,1.93696621 L39.9066944,1.93696621 Z" id="Combined-Shape"></path>
                </g>
                <path d="M24.274303,20.4726853 C25.9074177,18.06223 28.3662435,17.8390677 29.7983479,18.6536197 C31.2300787,19.4681717 31.3150784,21.8226005 30.3047965,23.4890555 C29.9806769,24.1462809 29.6055574,24.8782081 29.2227787,25.6605025 C29.1811195,25.5954214 29.1499218,25.5303402 29.1232076,25.4616749 C29.0593178,25.2932184 29.0256915,25.0785449 29.0260651,24.8380276 C29.024197,24.4865893 29.1065813,24.0234756 29.2465039,23.5973355 C29.3100201,23.4013374 29.3712946,23.2506132 29.4030527,23.1772319 C29.421734,23.1336558 29.4357449,23.1015868 29.4447119,23.0832886 L29.4447119,23.0832886 L29.4499426,23.0717815 C29.9136112,22.1398948 29.5450302,21.0050303 28.6305831,20.5353141 C28.3694193,20.4011903 28.0770578,20.3302613 27.7854435,20.3302613 C27.0774242,20.3302613 26.4387123,20.7262188 26.1188894,21.3632596 L26.1188894,21.3632596 L26.1097356,21.3815578 L26.1052521,21.3923103 L26.0828346,21.4407911 C25.4415073,22.8139092 25.2976617,24.0451693 25.2898156,24.8401026 C25.2901892,25.5409041 25.4050789,26.2011477 25.6298143,26.7995171 C25.9894283,27.787053 26.7206124,28.6621588 27.6621472,29.2501529 C27.4198515,29.9205832 27.2078193,30.6004455 27.0467869,31.2799305 L27.0467869,31.2799305 L33.9498816,34.8301549 C34.9734271,35.3568407 35.4654912,36.5545227 35.1114815,37.6582614 L35.1114815,37.6582614 L32.2474595,46.5872078 C31.9274497,47.5847416 31.0113213,48.2193301 30.0260723,48.2193301 C29.7876996,48.2193301 29.5450302,48.1821678 29.306097,48.1040704 C28.0791127,47.7026423 27.4065878,46.3727229 27.8043115,45.1341058 L27.8043115,45.1341058 L30.0544678,38.1191114 L22.5124745,34.2400857 L22.3750359,34.1637979 C22.2858087,34.1099444 22.2013695,34.050753 22.1216628,33.9871181 C21.1087656,33.3712051 20.3426476,32.3080242 20.4969547,30.2852263 C21.133238,26.1155047 22.0478719,23.8006905 24.274303,20.4726853 Z M26.4521628,21.5334138 C26.8257878,20.7903568 27.7256635,20.4940017 28.4611442,20.8716611 C29.195504,21.2483772 29.4887996,22.1532883 29.1187241,22.8955908 L29.1187241,22.8955908 L29.1093835,22.9163413 C29.0987352,22.938035 29.0819221,22.9763292 29.0598782,23.0278282 C29.0157904,23.1312034 28.9533951,23.289096 28.891747,23.4801894 C28.7658354,23.8621875 28.6503852,24.3805731 28.652627,24.8395367 C28.6522534,25.1264597 28.6940994,25.384332 28.7746155,25.5963646 C28.8573735,25.8100949 28.966472,25.9851538 29.1721525,26.1688901 C29.5667004,26.5274968 30.5061804,26.9734442 32.4796674,26.9723123 C33.2325217,26.9726896 34.1258589,26.908363 35.1723824,26.7591479 C35.9900606,26.6429451 36.7455303,27.217357 36.8611672,28.0428502 C36.9762437,28.8679661 36.4070261,29.6313964 35.5899083,29.747788 C34.4290556,29.9128489 33.4002793,29.9907576 32.4796674,29.9907576 C30.6875753,29.9892485 29.2917125,29.7004391 28.1878375,29.1175382 C27.0839626,28.5435036 26.3271853,27.6191625 25.980835,26.6687889 C25.7435831,26.0372187 25.6641878,25.4107418 25.6638142,24.8393481 C25.681935,23.0082095 26.4106905,21.6430143 26.4517892,21.5330365 L26.4517892,21.5330365 Z M30.193254,13.0345964 C31.3010297,10.9753927 33.8522423,10.2128587 35.8916442,11.3314006 C37.9309778,12.4500683 38.6862337,15.0262189 37.5785844,17.0854913 C36.4708087,19.144695 33.9195961,19.9072289 31.8801941,18.788687 C29.8408605,17.6700194 29.0856047,15.0938687 30.193254,13.0345964 Z" id="Combined-Shape" fill="#FFFFFF"></path>
            </g>
        </g>
    </g>
</svg>