<?xml version="1.0" encoding="UTF-8"?>
<svg width="64px" height="64px" viewBox="0 0 64 64" version="1.1" xmlns="http://www.w3.org/2000/svg" xmlns:xlink="http://www.w3.org/1999/xlink">
    <title>Noun / noun_bike-trips Copy 2</title>
    <g id="Page-1" stroke="none" stroke-width="1" fill="none" fill-rule="evenodd">
        <g id="index" transform="translate(-417.000000, -582.000000)">
            <g id="Noun-/-noun_bike-trips-Copy-2" transform="translate(417.000000, 582.000000)">
                <g id="noun_rafting" transform="translate(0.000000, 0.000000)">
                    <g id="noun_Rafting_3462676" transform="translate(2.666667, 14.666667)">
                        <path d="M29.1688767,2.53405601 C30.6572975,2.53405601 31.8648659,3.72965122 31.8648659,5.2055195 C31.8648659,6.67961389 30.6571597,7.87630073 29.1688767,7.87630073 C27.6772879,7.87630073 26.4719233,6.68111487 26.4719233,5.2055195 C26.4719233,3.72965122 27.6788031,2.53405601 29.1688767,2.53405601 Z" id="Path" fill="#FFFFFF"></path>
                        <path d="M37.6905883,0 C39.3077962,0 40.6192208,1.29834381 40.6192208,2.9015221 C40.6192208,4.50224425 39.3077962,5.80277129 37.6905883,5.80277129 C36.0710389,5.80277129 34.7611294,4.50442748 34.7611294,2.9015221 C34.7612672,1.29820736 36.0718653,0 37.6905883,0 Z" id="Path" fill="#FFFFFF"></path>
                        <path d="M20.6740244,0 C19.0566788,0 17.745392,1.29834381 17.745392,2.9015221 C17.745392,4.50224425 19.0566788,5.80277129 20.6740244,5.80277129 C22.2934361,5.80277129 23.6033456,4.50442748 23.6033456,2.9015221 C23.6032078,1.29820736 22.2927474,0 20.6740244,0 Z" id="Path" fill="#FFFFFF"></path>
                        <path d="M57.1097548,5.44908688 C56.871051,5.12064615 56.5260117,4.9674102 56.1097608,5.1202368 L52.9633611,6.11360968 L50.5607585,12.7548805 L48.4547106,14.2525811 L48.4547106,8.15821122 C48.4547106,7.41782094 47.8486537,6.81729428 47.1012753,6.81729428 L36.9742015,6.82370754 C35.8363296,6.82370754 34.9137456,7.90618378 34.9137456,9.24287069 L34.910853,12.7799877 C38.0916878,13.4370056 41.0177032,14.5860706 43.3350446,16.0809057 L43.3318766,9.49912815 L45.7478399,9.49912815 L45.751008,16.160321 L44.60253,16.9812181 C45.0116185,17.3018811 45.3937098,17.6344154 45.746738,17.9785481 L58.2911526,9.04924485 C58.5605725,8.8459309 58.7148415,8.6015448 58.6531339,8.32031657 C58.6136024,8.14019951 57.2459799,5.63698173 57.1097548,5.44908688 Z" id="Path" fill="#FFFFFF"></path>
                        <path d="M25.9412103,27.7784172 C28.3293501,28.5911272 29.2703912,28.5911272 31.7027457,27.7784172 C33.9550737,27.0307949 34.6656755,26.9684362 37.0108404,27.7398012 C37.1313631,27.3715164 37.206156,26.9912238 37.206156,26.6071105 C37.206156,24.3654718 32.9103142,21.9942034 28.848493,21.9942034 C24.7863963,21.9942034 20.4901413,24.3654718 20.4901413,26.6071105 C20.4901413,26.9856292 20.5631436,27.3604637 20.6804982,27.7236998 C22.875664,26.9935434 23.6730421,27.0104635 25.9412103,27.7784172 Z" id="Path" fill="#EF8130"></path>
                        <path d="M48.3135269,30.2715375 C45.9908137,29.4848899 45.2109286,29.4848899 42.8909701,30.2715375 C40.5010397,31.0853391 39.5517341,31.0853391 37.1299856,30.2715375 C34.6857855,29.4581452 33.9939164,29.5114981 31.7027457,30.2715375 C29.270529,31.0853391 28.3294878,31.0853391 25.9412103,30.2715375 C23.6156045,29.4848899 22.840678,29.4848899 20.5149345,30.2715375 C18.1256927,31.0853391 17.1768004,31.0853391 14.7535368,30.2715375 C13.5729654,29.8778726 12.6514834,29.6772876 12.012782,29.6772876 C11.410995,29.6772876 10.5086588,29.878009 9.32588362,30.2715375 C8.22437512,30.6424149 7.34586803,30.8219861 6.65702921,30.8562357 L6.66446718,34.6666667 C6.66446718,34.6666667 7.99297156,34.2371148 9.17671096,33.8434498 C11.6660899,33.0089074 12.551484,33.0554377 14.9071171,33.8434498 C17.203522,34.6071735 17.9006252,34.6607992 20.3362854,33.8434498 C22.7554168,33.0307398 23.6926012,33.0307398 26.1266086,33.8434498 C28.5592385,34.6568421 29.2552398,34.6071735 31.554675,33.8434498 C33.9059004,33.0479328 34.7866114,33.006042 37.2839792,33.8434498 C39.567712,34.6071735 40.2663303,34.6568421 42.7119079,33.8434498 C45.1347582,33.0307398 46.0835128,33.0307398 48.4730301,33.8434498 C49.4978173,34.1941323 50.3307324,34.388031 50.9551088,34.429649 L50.9551088,30.7342473 C50.3632391,30.8706996 49.5074591,30.6799393 48.3135269,30.2715375 Z" id="Path" fill="#FFFFFF"></path>
                        <path d="M28.8832035,12.158038 C28.8838922,12.158038 28.8838922,12.158038 28.8843054,12.158038 C28.8845809,12.158038 28.8845809,12.158038 28.8849941,12.158038 C30.4402189,12.158038 31.9877302,12.2833013 33.4922666,12.5190909 L33.4915779,11.2262051 C33.4915779,9.50308527 32.5443384,8.74181778 31.3771278,8.74181778 L26.9635181,8.74181778 C25.7949301,8.74181778 24.8476907,9.56380655 24.8476907,11.2262051 L24.8465888,12.438584 C26.1691703,12.2571024 27.5216415,12.158038 28.8832035,12.158038 Z" id="Path" fill="#FFFFFF"></path>
                        <path d="M23.4533465,12.6611377 L23.4504539,9.24287069 C23.4504539,7.90618378 22.52787,6.82370754 21.3899981,6.82370754 L11.263062,6.78713832 C10.5156836,6.78713832 9.90948891,7.38766497 9.90948891,8.12805525 L9.90948891,15.6445312 C9.90948891,16.2353698 10.2981918,16.7317833 10.8338635,16.9102629 L9.16706915,18.1062675 L2.1992049,18.109133 L0.130346871,21.0322146 C-0.116345854,21.3665227 0.0125789869,21.8667569 0.304450502,22.1558994 C0.469187799,22.3190964 2.07813125,24.0325281 2.20925993,24.1624307 C2.53294944,24.4830937 2.88914563,24.372158 3.24313799,24.1367777 L12.8412894,17.2564425 C16.375841,14.6938679 20.300473,13.2466546 23.4533465,12.6611377 Z M12.6164973,9.46897219 L15.0325985,9.46897219 L15.0303946,13.8990332 L12.6166351,15.6310224 L12.6166351,9.46897219 L12.6164973,9.46897219 Z" id="Shape" fill="#FFFFFF"></path>
                        <path d="M12.012782,27.1836215 C12.6514834,27.1836215 13.5729654,27.3844793 14.7535368,27.7784172 C16.7783179,28.4576768 17.7763835,28.5667022 19.4427647,28.1112244 C19.2895975,27.6337777 19.1953832,27.1295864 19.1953832,26.6071105 C19.1953832,23.3412607 24.4755166,20.7116881 28.8476665,20.7116881 C33.2198164,20.7116881 38.500914,23.3412607 38.500914,26.6071105 C38.500914,27.1331342 38.4051846,27.640191 38.2498136,28.1205031 C39.9139909,28.5657471 40.907511,28.4530374 42.8909701,27.7784172 C44.1557008,27.3492746 44.9631339,27.1557853 45.8120269,27.1948106 C46.4665684,25.9741082 46.9347474,24.6241854 46.9347474,23.224594 C46.9347474,18.0888016 37.2776432,13.4556996 28.8849941,13.4556996 C28.8845809,13.4556996 28.8845809,13.4556996 28.8843054,13.4556996 C28.8838922,13.4556996 28.8838922,13.4556996 28.8836167,13.4556996 C20.4909677,13.4556996 10.8338635,18.088938 10.8338635,23.224594 C10.8338635,24.6209105 11.2998386,25.9676949 11.9519008,27.1860777 C11.9715977,27.1853954 11.9937738,27.1836215 12.012782,27.1836215 Z" id="Path" fill="#EF8130"></path>
                    </g>
                </g>
            </g>
        </g>
    </g>
</svg>