<?xml version="1.0" encoding="UTF-8"?>
<svg width="64px" height="64px" viewBox="0 0 64 64" version="1.1" xmlns="http://www.w3.org/2000/svg" xmlns:xlink="http://www.w3.org/1999/xlink">
    <title>Noun / noun_bike-trips Copy 4</title>
    <g id="Page-1" stroke="none" stroke-width="1" fill="none" fill-rule="evenodd">
        <g id="index" transform="translate(-778.000000, -582.000000)">
            <g id="Noun-/-noun_bike-trips-Copy-4" transform="translate(778.000000, 582.000000)">
                <g id="Group" transform="translate(6.666667, 5.333333)">
                    <path d="M24.7466417,0.0470026299 C9.20948575,-0.738269612 -6.04721614,8.46063379 2.42249704,16.8181741 C6.57321741,20.9128079 9.93866636,21.305444 13.1358429,20.1275357 L19.474105,27.6437128 C19.7545591,27.0267132 20.2032856,26.4658045 20.8763754,26.0731684 C21.0446479,25.9609866 21.1568295,25.9048957 21.325102,25.8488049 L15.5477479,19.0057182 C18.0157438,17.5473555 20.4276489,15.528084 23.0078264,13.9014486 C29.3460886,10.0311783 33.6650814,10.7603596 39.3302538,13.7892669 C40.1716161,14.2379939 41.0129783,14.63063 41.7421589,14.9671752 L38.8254365,25.5683505 C39.6107079,25.4561687 40.4520701,25.6244414 41.2373416,26.0731684 C41.2934324,26.1292592 41.2934324,26.1292592 41.3495232,26.1853501 L44.154064,15.9207201 C47.5756037,17.0425376 49.8753272,16.6499015 50.548417,13.733176 C52.0067782,7.84363417 39.7789803,0.832274872 24.7466417,0.0470026299 Z" id="Path" fill="#EF8130" fill-rule="nonzero"></path>
                    <path d="M38.0962559,28.3728942 C38.5449824,27.6437128 39.4985263,27.4193493 40.2277069,27.8680763 C40.9568875,28.3168033 41.1812507,29.2703482 40.5642518,30.0556204 L40.5642518,30.0556204 L38.7693457,33.0284368 C37.759711,34.5989813 36.0208957,35.5525261 34.1698988,35.4403444 L34.1698988,35.4403444 L34.0016263,35.4403444 L33.7772631,41.442068 L37.1988028,42.6199763 C37.8718926,42.8443398 38.3206191,43.3491577 38.4328008,44.0222482 L38.4328008,44.0222482 L39.4424355,49.8556991 C39.6107079,50.809244 38.9937089,51.7627888 37.9840742,51.9310615 L37.9840742,51.9310615 L37.7036202,51.9310615 C36.8061671,51.9310615 36.0769865,51.3140619 35.9087141,50.4166079 L35.9087141,50.4166079 L35.0673518,45.6488835 L34.1698988,45.3123383 C34.2820804,45.7049744 34.3381712,46.0976105 34.2259896,46.4902467 L34.2259896,46.4902467 L32.7676284,51.9871523 C32.5432651,52.7724246 31.8140845,53.3333333 31.0288131,53.3333333 C30.9166315,53.3333333 30.748359,53.3333333 30.5800866,53.2772425 C29.6265427,52.9967881 29.0095437,51.9871523 29.2899978,51.0336075 L29.2899978,51.0336075 L30.5239957,46.4341558 L27.5511825,42.6760672 C27.2707284,42.2834311 27.102456,41.8347041 27.1585468,41.3859771 L27.1585468,41.3859771 L27.6072733,35.3842535 L27.6072733,35.3842535 L27.5511825,35.3842535 C25.8123672,35.3842535 24.1857336,34.4867995 23.2321897,32.9723459 L23.2321897,32.9723459 L21.4372836,29.9995296 C20.9885571,29.2703482 21.2129203,28.3168033 22.0542826,27.8680763 C22.7834632,27.4193493 23.737007,27.6437128 24.1857336,28.3728942 L24.1857336,28.3728942 L25.9806397,31.3457106 C26.3732754,31.9627102 27.0463652,32.2992554 27.7755458,32.2992554 C29.1217254,32.2431645 30.2435417,32.1870737 31.1409947,32.1870737 C32.0384478,32.1870737 33.1602641,32.2431645 34.5064437,32.2992554 C35.2356243,32.2992554 35.9087141,31.9627102 36.3013498,31.3457106 L36.3013498,31.3457106 Z M31.0849039,24.3343513 C32.94359,24.3343513 34.4503529,25.8411156 34.4503529,27.6998037 C34.4503529,29.5584918 32.94359,31.0652562 31.0849039,31.0652562 C29.2262178,31.0652562 27.719455,29.5584918 27.719455,27.6998037 C27.719455,25.8411156 29.2262178,24.3343513 31.0849039,24.3343513 Z" id="Combined-Shape" fill="#FFFFFF"></path>
                </g>
            </g>
        </g>
    </g>
</svg>