<?xml version="1.0" encoding="UTF-8"?>
<svg width="64px" height="64px" viewBox="0 0 64 64" version="1.1" xmlns="http://www.w3.org/2000/svg" xmlns:xlink="http://www.w3.org/1999/xlink">
    <title>Noun/noun_trekking</title>
    <g id="Page-1" stroke="none" stroke-width="1" fill="none" fill-rule="evenodd">
        <g id="index" transform="translate(-1319.000000, -582.000000)">
            <g id="Noun/noun_trekking" transform="translate(1319.000000, 582.000000)">
                <rect id="Rectangle" x="0" y="0" width="64" height="64"></rect>
                <g id="Group-4" transform="translate(5.333333, 8.000000)" fill-rule="nonzero">
                    <path d="M23.5266336,0.0988134712 C25.5732228,0.570253242 26.8460476,2.59332987 26.3694316,4.61734939 C25.8931535,6.6413689 23.8475262,7.90002737 21.8012836,7.4285876 C19.7546944,6.95714783 18.4818696,4.9340712 18.9584857,2.91005168 C19.4351017,0.886375038 21.480391,-0.372283435 23.5266336,0.0988134712" id="Path" fill="#FFFFFF"></path>
                    <path d="M20.9425082,14.8836704 C20.7586991,14.7594503 20.5830184,14.6358988 20.4215495,14.5143531 C18.8569491,13.3427824 18.0032865,12.1785833 17.7788437,11.8497755 C17.2609267,11.0632597 17.4819725,10.0246178 18.2629036,9.52103445 C18.5381103,9.34324166 18.8576597,9.24881656 19.1856322,9.24881656 C19.7570341,9.24881656 20.2860953,9.53074611 20.5995353,10.0028545 C20.6225533,10.0356675 20.6462489,10.0688158 20.6804378,10.11402 C20.7474622,10.2024106 20.8611966,10.3460541 21.0196238,10.5248583 C21.1790562,10.705334 21.3997641,10.9366995 21.6749708,11.190497 C21.8608078,9.68746126 21.2166309,8.11979545 19.9523072,7.80804519 C19.4357508,7.68047358 18.8362458,7.69922831 18.2404757,7.88606075 C17.6274436,6.71380433 13.811153,0.0523603676 8.60243312,4.94924813 C5.89638064,7.49330857 8.3356928,10.0941989 9.12508159,10.0941989 C9.91447039,10.0941989 3.71271666,12.2133636 6.19363306,18.1244468 C8.67420283,24.035873 13.732832,23.2955411 14.4095401,21.8460781 C14.4884123,21.6766512 14.6028296,21.3578979 14.7422874,20.929342 C15.1207379,21.8702501 15.7618991,23.8533829 15.7585195,26.4165581 C15.7544574,28.9157032 15.1759474,31.9623184 13.1351382,35.3216268 C12.5326002,36.3110503 12.8551913,37.5961094 13.8558163,38.1917521 C14.19703,38.3953284 14.5731061,38.4920936 14.9447539,38.4920936 C15.6617057,38.4920936 16.3610834,38.1311507 16.7578013,37.4796124 C19.2174,33.4469166 19.991511,29.5699673 19.9871782,26.4162067 C19.9854857,25.2958943 19.8903644,24.2682414 19.7458198,23.3467909 L23.8664687,25.7341619 L25.2661599,33.0525358 C25.4580889,34.0556739 26.3449586,34.7554619 27.3411728,34.7554619 C27.471497,34.7554619 27.6035109,34.7437428 27.7362095,34.7186305 C28.8833809,34.5036711 29.6375608,33.4097422 29.4206572,32.2750296 L27.8421916,24.0218335 C27.7284537,23.4271765 27.3615113,22.9118929 26.8334121,22.6057999 L20.5524794,18.966542 C20.5341999,17.6084526 20.7119118,16.201162 20.942438,14.8836164 L20.9425082,14.8836704 Z M11.1545482,8.01230718 C11.1545482,7.2361716 11.7905966,6.60698808 12.5752972,6.60698808 C13.3602925,6.60698808 13.9960463,7.23612874 13.9960463,8.01230718 C13.9960463,8.78877706 13.3599978,9.41788343 12.5752972,9.41788343 C11.7905966,9.41788343 11.1545482,8.7883999 11.1545482,8.01230718 Z M9.57571858,7.32858237 C9.57571858,5.99123631 10.6711729,4.9088106 12.0224226,4.9088106 C13.0207165,4.9088106 13.8784521,5.50045037 14.258965,6.34824479 L14.032841,6.57458731 C13.6594687,6.0515806 13.0447727,5.70842388 12.3483933,5.70842388 C11.209281,5.70842388 10.2862058,6.62250274 10.2862058,7.74821519 C10.2862058,8.44599748 10.6402795,9.06044637 11.1795575,9.42808367 L11.0560013,9.55196947 C10.1853538,9.18131495 9.57571858,8.32579749 9.57571858,7.32865951 L9.57571858,7.32858237 Z" id="Shape" fill="#FFFFFF"></path>
                    <polygon id="Path" fill="#EF8130" points="40.9300512 30.2663216 32.5862377 35.3966149 22.6639586 36.5119557 15.5603867 39.635287 8.62579684 40.9735759 0 48 53.3333333 48 53.3333333 25.4703219"></polygon>
                    <path d="M30.4947426,16.9425765 L33.461738,32.7495234 L34.3764075,32.5814423 L31.4036234,16.7427803 C31.2885336,16.7920003 31.1670052,16.8308367 31.0387175,16.8542801 C30.8569361,16.8877626 30.6758394,16.9152193 30.4947426,16.9420022 L30.4947426,16.9425765 Z" id="Path" fill="#FFFFFF"></path>
                    <path d="M30.7330679,13.537067 C30.7560859,13.537067 30.7787659,13.539076 30.8017847,13.5400804 L30.115293,9.88307928 L29.2006235,10.0508261 L29.876621,13.652626 C30.0584024,13.6275137 30.240513,13.5983838 30.4236462,13.5649039 C30.525876,13.5461534 30.6301336,13.5371129 30.7330393,13.5371129 L30.7330679,13.537067 Z" id="Path" fill="#FFFFFF"></path>
                    <path d="M20.7639938,10.7461436 C20.6015111,10.5626592 20.483033,10.4129899 20.4085596,10.3148876 C20.3713237,10.2656676 20.3452589,10.2291713 20.3303651,10.2077422 C20.324272,10.1990368 20.3198717,10.192675 20.3175017,10.1893269 C20.3164861,10.1876528 20.3161476,10.1876528 20.3161476,10.1876528 C19.9065524,9.57156671 19.0707932,9.39879689 18.4462529,9.80192932 C17.8203521,10.2057303 17.6439955,11.0347872 18.0522301,11.6541733 L18.0518916,11.6538385 C18.1111298,11.7405577 18.9390907,12.9864702 20.6248382,14.2484716 C22.3018334,15.5064443 24.8791995,16.7764174 28.2835378,16.7764174 L28.2936932,16.7764174 C29.1406312,16.7764174 30.0362881,16.6984018 30.9763482,16.5266314 C31.7112468,16.3923654 32.1970052,15.6942488 32.0612996,14.9679658 C31.9255593,14.2410486 31.2197777,13.7605657 30.4851737,13.8947975 C29.7022062,14.0377723 28.9730877,14.0997109 28.2936932,14.0997109 C25.5724757,14.0973671 23.5989387,13.111316 22.2560947,12.1124637 C21.5885636,11.613569 21.0889054,11.1126685 20.7639399,10.7460598 L20.7639938,10.7461436 Z" id="Path" fill="#FFFFFF"></path>
                </g>
            </g>
        </g>
    </g>
</svg>